<?xml version="1.0" standalone="no"?>
<!DOCTYPE svg PUBLIC "-//W3C//DTD SVG 20010904//EN"
 "http://www.w3.org/TR/2001/REC-SVG-20010904/DTD/svg10.dtd">
<svg version="1.0" xmlns="http://www.w3.org/2000/svg"
 width="310.000000pt" height="310.000000pt" viewBox="0 0 310.000000 310.000000"
 preserveAspectRatio="xMidYMid meet">
<metadata>
Created by potrace 1.11, written by Peter Selinger 2001-2013
</metadata>
<g transform="translate(0.000000,310.000000) scale(0.100000,-0.100000)"
fill="#000000" stroke="none">
<path d="M380 3090 c-12 -7 -17 -61 -7 -77 3 -5 30 -10 59 -12 149 -6 190 -12
230 -31 102 -49 128 -98 144 -270 3 -36 7 -311 8 -612 l2 -548 -55 0 c-295 -2
-378 -4 -388 -13 -15 -11 -17 -105 -3 -127 8 -12 44 -15 219 -16 115 -1 213
-4 218 -7 7 -4 10 -141 4 -179 0 -5 -100 -8 -220 -8 -248 0 -231 6 -231 -86 0
-41 4 -56 16 -61 9 -3 110 -6 225 -7 176 -1 209 -3 212 -16 5 -21 -1 -515 -7
-626 -9 -139 -14 -153 -71 -210 -64 -64 -117 -83 -256 -90 -57 -3 -105 -7
-107 -9 -10 -10 -3 -68 9 -76 8 -4 309 -7 669 -6 l655 2 3 34 c2 18 0 37 -5
41 -4 5 -55 11 -113 15 -126 7 -143 11 -195 43 -121 75 -133 128 -131 592 l1
304 663 2 c415 1 667 5 673 11 6 6 9 39 7 74 l-3 64 -672 3 -673 2 0 95 c0 52
3 95 8 96 4 0 158 2 342 4 294 3 348 6 436 24 384 80 614 300 684 655 37 184
1 414 -87 566 -52 88 -209 245 -298 297 -110 63 -262 118 -385 137 -19 3 -46
8 -60 10 -14 3 -45 8 -70 12 -59 9 -1435 13 -1450 4z m1289 -194 c274 -22 467
-198 527 -479 16 -76 22 -290 9 -367 -33 -214 -183 -401 -381 -476 -52 -19
-92 -26 -164 -29 -85 -3 -337 -7 -383 -5 -16 0 -17 36 -15 663 l3 662 60 12
c33 7 94 15 135 19 41 3 76 8 78 9 2 2 15 2 30 0 15 -2 60 -6 101 -9z"/>
</g>
</svg>
