<?xml version="1.0" encoding="utf-8"?>
<!-- Generator: Adobe Illustrator 19.2.1, SVG Export Plug-In . SVG Version: 6.00 Build 0)  -->
<svg version="1.1" id="Layer_1" xmlns="http://www.w3.org/2000/svg" xmlns:xlink="http://www.w3.org/1999/xlink" x="0px" y="0px"
	 viewBox="0 0 223.7 65.2" style="enable-background:new 0 0 223.7 65.2;" xml:space="preserve">
<style type="text/css">
	.st0{fill:#8A8A8D;}
	.st1{fill:#C3C3C4;}
</style>
<title>лого2</title>
<path class="st0" d="M83.2,14c1.4,0,4.4-0.1,6-0.2c0,0.3-0.1,0.6-0.1,0.9c0,0.2,0.1,0.6,0.1,0.9c-1.5-0.2-4-0.4-4.7-0.4
	c-0.5,0-2.6,0-3.8,0.2v6.5H82c2.7,0,8.3,0.5,8.3,5.2c0,3.8-3.2,5.5-7.3,5.5c-0.5,0-2.2-0.1-3.3-0.1c-0.5,0-1,0-1.5,0.1
	c0.2-2.8,0.2-6.8,0.2-10c0-2.9,0-7.3-0.2-8.7C79.9,13.9,82.6,14,83.2,14z M80.7,31c0.7,0,1.5,0,2.2,0c3,0,4.8-1.4,4.8-4.1
	c0-2.9-2.1-3.8-7-3.8V31z"/>
<path class="st0" d="M93.3,21c1.1-1.2,2.7-1.8,4.4-1.8c2.7,0,4.6,1.3,4.6,4.6v6.4c0,1.3,0.3,1.6,0.8,1.6c0.2,0,0.4,0,0.6-0.1
	l0.2,0.6c-0.6,0.3-1.3,0.5-1.9,0.5c-0.7,0.1-1.4-0.4-1.6-1.1l-0.2-0.6c-1.2,1-2.6,1.6-4.2,1.7c-2.3,0-3.9-1.2-3.9-3.4
	c0-2.3,1.7-3.4,4.1-3.8l2.6-0.5c0.9-0.2,1.3-0.4,1.3-1.1c0-2.8-1.2-3.5-3.1-3.5c-1.5-0.1-2.9,0.7-3.5,2.1h-0.3L93.3,21z M100.2,25.9
	l-1.7,0.3c-1.9,0.3-3.9,0.9-3.9,2.9c0,1.5,0.8,2.3,2.5,2.3c1.2,0,2.3-0.5,3.1-1.5L100.2,25.9z"/>
<path class="st0" d="M107.4,19.6c0.3,0,0.8,0,1.2-0.1c-0.2,2-0.2,5.2-0.2,5.3c1.1,0,2.6,0.1,3.5,0.1s2.5,0,3.3-0.1
	c0-0.2,0-3.4-0.2-5.3c0.4,0,1,0.1,1.3,0.1s0.8,0,1.2-0.1c-0.2,1.9-0.2,5.2-0.2,6.5c0,1.1,0,4.6,0.2,6.5c-0.4-0.1-0.8-0.1-1.2-0.1
	c-0.4,0-0.9,0-1.3,0.1c0.2-2,0.2-5.4,0.2-6.3c-1.1-0.1-2.7-0.2-3.3-0.2s-2.4,0-3.4,0.1c0,0.9,0,4.3,0.2,6.3
	c-0.4-0.1-0.8-0.1-1.2-0.1c-0.4,0-0.9,0-1.3,0.1c0.2-2,0.2-5.4,0.2-6.5c0-1.3,0-4.6-0.2-6.5C106.5,19.5,107.1,19.6,107.4,19.6z"/>
<path class="st0" d="M122.2,19.6c0.3,0,0.8,0,1.2-0.1c-0.2,1.9-0.2,5.2-0.2,5.7h0.4c0.9,0,5.2-4.9,5.6-5.7c0.4,0,1,0.1,1.3,0.1
	c0.3,0,0.9,0,1.3-0.1l-6.2,5.5c0.8,0.9,4.9,5.5,6.7,7.5c-0.7-0.1-1.2-0.1-1.5-0.1c-0.3,0-1.2,0-1.7,0.1c-1.7-2.3-3.5-4.6-5.5-6.7
	h-0.4c0,1,0,4.7,0.2,6.7c-0.4-0.1-0.8-0.1-1.2-0.1c-0.4,0-0.9,0-1.3,0.1c0.2-2,0.2-5.4,0.2-6.5c0-1.3,0-4.6-0.2-6.5
	C121.3,19.5,121.9,19.6,122.2,19.6z"/>
<path class="st0" d="M146,13.9c0.9,0,2.1-0.1,2.7-0.1c4.8,0,6.6,1.4,6.6,4.7c0,4.2-3.5,5.5-7.7,5.5c-0.2,0-1.2,0-1.7-0.1v4.4
	c0,1.4,0.1,2.8,0.2,4.2c-0.4-0.1-0.9-0.1-1.3-0.1c-0.5,0-0.9,0-1.4,0.1c0.2-2.8,0.2-6.8,0.2-10c0-2.9,0-7.3-0.2-8.7
	C144.3,13.8,145.4,13.9,146,13.9z M147,22.7c3.6,0,5.7-1.4,5.7-4.2c0-2.5-2-3.2-4.5-3.2c-0.4,0-1.9,0-2.3,0.1v7.2
	C146.3,22.6,146.6,22.7,147,22.7z"/>
<path class="st0" d="M168.8,25.9c0,3.9-2.6,6.9-6.6,6.9c-3.4,0.1-6.3-2.6-6.4-6c0-0.1,0-0.3,0-0.4c0-4.3,2.7-7,6.7-7
	S168.8,22.1,168.8,25.9z M158.2,26.2c0,2.9,1.2,5.6,3.9,5.6c2.7,0,4.2-2.5,4.2-6c0-2.8-1.1-5.6-4-5.6
	C159.4,20.2,158.2,23.2,158.2,26.2L158.2,26.2z"/>
<path class="st0" d="M181.4,22.3H181c-0.7-1.3-2.1-2.1-3.6-2.1c-3,0-4.4,2.9-4.4,5.7c0,3.3,1.8,5.8,5,5.8c1.1,0,2-0.2,3.5-1.8
	l0.2,0.3l-0.3,1.3c-1.2,0.8-2.7,1.3-4.2,1.2c-3.5,0.2-6.5-2.6-6.6-6.1c0-0.2,0-0.5,0-0.7c0-4.2,2.8-6.8,7-6.8c1.5,0,3.1,0.3,4.4,1.1
	L181.4,22.3z"/>
<path class="st0" d="M194.4,22.3H194c-0.7-1.3-2.1-2.1-3.6-2.1c-3,0-4.5,2.9-4.5,5.7c0,3.3,1.8,5.8,5,5.8c1.1,0,2-0.2,3.5-1.8
	l0.2,0.3l-0.3,1.3c-1.2,0.8-2.7,1.3-4.2,1.2c-4,0-6.6-2.8-6.6-6.8c0-4.2,2.8-6.8,7-6.8c1.6,0,3.1,0.3,4.5,1.1L194.4,22.3z"/>
<path class="st0" d="M198.2,32.5c-0.2,0-0.6,0.1-0.8,0.1c0.2-2,0.2-5.4,0.2-6.5c0-1.3,0-4.6-0.2-6.5c0.4,0,1,0.1,1.3,0.1
	s0.8,0,1.2-0.1c-0.2,1.9-0.2,5.2-0.2,6.5c0,1.1,0,2.6,0,3.3c1.4-1.7,6.5-8.1,7.7-9.8c0.3,0.1,0.5,0.1,0.8,0.1c0.1,0,0.7,0,1-0.1
	c-0.2,1.9-0.2,5.2-0.2,6.5c0,1.1,0,4.6,0.2,6.5c-0.4-0.1-0.8-0.1-1.2-0.1c-0.4,0-0.9,0-1.3,0.1c0.2-2,0.2-5.4,0.2-6.5
	c0-1.3,0-3-0.1-3.5c-2.8,3.2-5.4,6.5-7.9,10C198.7,32.4,198.4,32.4,198.2,32.5z"/>
<path class="st0" d="M212.8,32.5c-0.2,0-0.6,0.1-0.8,0.1c0.2-2,0.2-5.4,0.2-6.5c0-1.3,0-4.6-0.2-6.5c0.4,0,1,0.1,1.3,0.1
	s0.8,0,1.2-0.1c-0.2,1.9-0.2,5.2-0.2,6.5c0,1.1,0,2.6,0.1,3.3c1.4-1.7,6.5-8.1,7.7-9.8c0.3,0.1,0.5,0.1,0.8,0.1c0.2,0,0.7,0,1-0.1
	c-0.2,1.9-0.2,5.2-0.2,6.5c0,1.1,0,4.6,0.2,6.5c-0.4-0.1-0.8-0.1-1.2-0.1c-0.4,0-0.9,0-1.3,0.1c0.2-2,0.2-5.4,0.2-6.5
	c0-1.3,0-3,0-3.5c-2.8,3.2-5.4,6.5-7.9,10C213.3,32.4,213,32.4,212.8,32.5z"/>
<path class="st0" d="M78.6,41.2h0.3c0,0.3,0,1.4,0,2s0,1.7,0,1.9c0.7,0,1,0.1,1.3,0.1s0.6,0,1.2-0.1c0-0.4,0-1.3,0-1.9s0-1.7,0-2
	h0.3H82c0,0.3,0,1.4,0,2s0,1.5,0,2h0.5l-0.2,1.3h-0.2c0-0.9-0.2-1-1-1h-1.8h-1.1c0-0.7,0-1.6,0-2.3s0-1.7,0-2L78.6,41.2z"/>
<path class="st0" d="M85.4,45l-0.1,0.3c-0.3,0.2-0.7,0.4-1.1,0.3c-0.9-0.1-1.5-0.8-1.5-1.7c0.1-0.8,0.7-1.4,1.5-1.5
	c0.8,0,1.3,0.5,1.3,1.4c0,0,0,0.2,0,0.2h-0.8h-1.5c0,0.9,0.3,1.3,1,1.3C84.7,45.5,85.1,45.3,85.4,45L85.4,45z M84.9,43.8v-0.2
	c0.1-0.4-0.3-0.9-0.7-0.9c0,0,0,0,0,0c-0.5,0-0.8,0.5-0.8,1.1H84.9z"/>
<path class="st0" d="M86.4,42.5h0.3c0,0.5-0.1,1.2-0.1,1.2h0.8h0.8c0,0,0-0.8-0.1-1.2h0.3h0.3c0,0.4-0.1,1.2-0.1,1.5s0,1.1,0.1,1.5
	h-0.3h-0.3c0-0.5,0.1-1.3,0.1-1.5h-0.8h-0.8c0,0.2,0,1,0.1,1.5h-0.3h-0.3c0-0.5,0.1-1.3,0.1-1.5s0-1.1-0.1-1.5L86.4,42.5z"/>
<path class="st0" d="M91.9,42.8c0,0.1,0,0.1,0,0.2h-1.1V44c0,0.3,0,1.1,0.1,1.5h-0.3h-0.3c0-0.5,0.1-1.3,0.1-1.5v-1.1h-1
	c0-0.1,0-0.1,0-0.2c0-0.1,0-0.1,0-0.2c0.3,0,0.7,0.1,0.8,0.1h1c0.2,0,0.6,0,0.8-0.1C92,42.6,91.9,42.7,91.9,42.8z"/>
<path class="st0" d="M92.8,42.5h0.3c0,0.1,0,0.5,0,0.5c0.2-0.4,0.6-0.6,1-0.6c0.7,0,1.3,0.6,1.3,1.3c0,0.1,0,0.1,0,0.2
	c0,0.8-0.4,1.7-1.4,1.7c-0.4,0-0.7-0.1-0.9-0.5c0,0.4,0,1.3,0.1,1.7h-0.3h-0.3c0-0.5,0.1-1.3,0.1-1.8v-0.7c0-0.5,0-1.3-0.1-1.8H92.8
	z M93,44.1c0,0.6,0.2,1.3,0.9,1.3s0.9-0.4,0.9-1.3s-0.3-1.3-0.9-1.3S93,43.4,93,44.1z"/>
<path class="st0" d="M96,42.9c0.3-0.3,0.6-0.4,1-0.4c0.6,0,1,0.4,1.1,0.9c0,0,0,0.1,0,0.1V45c0,0.3,0.1,0.4,0.2,0.4h0.1v0.1
	c-0.1,0.1-0.3,0.1-0.4,0.1c-0.2,0-0.3-0.1-0.4-0.3v-0.1c-0.3,0.2-0.6,0.4-1,0.4c-0.6,0-0.9-0.3-0.9-0.8s0.4-0.8,1-0.9l0.6-0.1
	c0.2,0,0.3-0.1,0.3-0.3c0-0.7-0.3-0.8-0.7-0.8c-0.3,0-0.7,0.2-0.8,0.5H96L96,42.9z M97.6,44l-0.4,0.1c-0.4,0.1-0.9,0.2-0.9,0.7
	s0.2,0.5,0.6,0.5c0.3,0,0.5-0.1,0.7-0.3V44z"/>
<path class="st0" d="M100.2,42.5h0.2c0.4,1,0.8,2,1.3,3h-0.4h-0.3c-0.3-0.8-0.6-1.6-1-2.4c-0.4,0.8-0.7,1.6-0.9,2.4h-0.3h-0.3
	c0.5-1,1-2,1.3-3H100.2z"/>
<path class="st0" d="M102.5,42.5h0.3c0,0.4-0.1,1.1-0.1,1.2h0.6c0.8,0,1.3,0.3,1.3,0.9s-0.6,0.9-1.3,0.9h-0.8h-0.3
	c0-0.5,0.1-1.3,0.1-1.5s0-1.1-0.1-1.5L102.5,42.5z M102.8,45.3c0.2,0,0.4,0,0.6,0c0.5,0,0.8-0.2,0.8-0.7s-0.4-0.7-0.8-0.7
	c-0.2,0-0.4,0-0.6,0C102.8,44.3,102.8,45,102.8,45.3z"/>
<path class="st0" d="M105.5,42.5h0.3c0,0.5-0.1,1.2-0.1,1.2h0.8h0.8c0,0,0-0.8-0.1-1.2h0.3h0.3c0,0.4-0.1,1.2-0.1,1.5s0,1.1,0.1,1.5
	h-0.3h-0.3c0-0.5,0.1-1.3,0.1-1.5h-0.8h-0.8c0,0.2,0,1,0.1,1.5h-0.3h-0.3c0-0.5,0.1-1.3,0.1-1.5s0-1.1-0.1-1.5L105.5,42.5z"/>
<path class="st0" d="M109,42.5h0.3c0,0.4-0.1,1.1-0.1,1.2h0.6c0.8,0,1.3,0.3,1.3,0.9s-0.6,0.9-1.3,0.9H109h-0.3
	c0-0.5,0.1-1.3,0.1-1.5s0-1.1-0.1-1.5L109,42.5z M109.2,45.3c0.2,0,0.4,0,0.6,0c0.5,0,0.8-0.2,0.8-0.7s-0.4-0.7-0.8-0.7
	c-0.2,0-0.4,0-0.6,0C109.2,44.3,109.2,45,109.2,45.3z M111.9,42.5h0.3c0,0.4-0.1,1.2-0.1,1.5s0,1.1,0.1,1.5h-0.3h-0.3
	c0-0.5,0.1-1.3,0.1-1.5s0-1.1-0.1-1.5H111.9z"/>
<path class="st0" d="M113.2,45.5H113c0-0.5,0.1-1.3,0.1-1.5s0-1.1-0.1-1.5h0.3h0.3c0,0.4-0.1,1.2-0.1,1.5s0,0.6,0,0.8
	c0.3-0.4,1.5-1.9,1.8-2.3h0.2h0.2c0,0.4-0.1,1.2-0.1,1.5s0,1.1,0.1,1.5h-0.3h-0.3c0-0.5,0.1-1.3,0.1-1.5s0-0.7,0-0.8
	c-0.7,0.7-1.3,1.5-1.9,2.4L113.2,45.5z M113.7,41.4c0.3,0.4,0.8,0.6,1.2,0.3c0.1-0.1,0.2-0.2,0.3-0.3l0,0c0,0.1,0,0.3,0.1,0.4
	c-0.3,0.1-0.6,0.2-0.9,0.2c-0.3,0-0.6-0.1-0.9-0.2C113.6,41.7,113.6,41.5,113.7,41.4L113.7,41.4z"/>
<path class="st0" d="M121.2,40.8l-0.1,0.4c-0.1,0.3-0.4,0.5-0.8,0.5c-1.1,0.2-1.3,0.6-1.3,1.3v0.2c0.2-0.4,0.6-0.7,1.1-0.7
	c0.7,0,1.3,0.6,1.4,1.3c0,0.1,0,0.1,0,0.2c0.1,0.8-0.5,1.6-1.3,1.6c0,0-0.1,0-0.1,0c-1.1,0-1.4-0.6-1.4-2.1c0-0.7,0.2-1.4,0.8-1.9
	c0.3-0.4,0.8-0.6,1.3-0.6c0.3,0,0.5-0.1,0.5-0.3L121.2,40.8z M119,44.1c0,0.6,0.2,1.3,0.9,1.3s0.9-0.6,0.9-1.4s-0.3-1.3-0.9-1.3
	S119,43.5,119,44.1z"/>
<path class="st0" d="M122.1,42.9c0.3-0.3,0.6-0.4,1-0.4c0.6,0,1,0.4,1.1,0.9c0,0,0,0.1,0,0.1V45c0,0.3,0.1,0.4,0.2,0.4h0.1v0.1
	c-0.1,0.1-0.3,0.1-0.4,0.1c-0.2,0-0.3-0.1-0.4-0.3v-0.1c-0.3,0.2-0.6,0.4-1,0.4c-0.6,0-0.9-0.3-0.9-0.8s0.4-0.8,1-0.9l0.6-0.1
	c0.2,0,0.3-0.1,0.3-0.3c0-0.7-0.3-0.8-0.7-0.8c-0.3,0-0.7,0.2-0.8,0.5h-0.1L122.1,42.9z M123.7,44l-0.4,0.1
	c-0.4,0.1-0.9,0.2-0.9,0.7s0.2,0.5,0.6,0.5c0.3,0,0.5-0.1,0.7-0.3V44z"/>
<path class="st0" d="M125.3,42.5h0.3c0,0.5-0.1,1.2-0.1,1.2h0.8h0.8c0,0,0-0.8-0.1-1.2h0.3h0.3c0,0.4-0.1,1.2-0.1,1.5s0,1.1,0.1,1.5
	h-0.3h-0.3c0-0.5,0.1-1.3,0.1-1.5h-0.8h-0.8c0,0.2,0,1,0.1,1.5h-0.3H125c0-0.5,0.1-1.3,0.1-1.5s0-1.1-0.1-1.5L125.3,42.5z"/>
<path class="st0" d="M128.8,42.5h0.3c0,0.4,0,1.2,0,1.3h0.1c0.2,0,1.2-1.2,1.3-1.3h0.3h0.3l-1.4,1.3c0.2,0.2,1.1,1.3,1.6,1.8h-0.4
	h-0.4c-0.4-0.5-0.8-1.1-1.3-1.6H129c0,0.2,0,1.1,0,1.6h-0.3h-0.3c0-0.5,0.1-1.3,0.1-1.5s0-1.1-0.1-1.5L128.8,42.5z"/>
<path class="st0" d="M134.4,41.2h0.6c1.1,0,1.5,0.3,1.5,1.1c0,1-0.8,1.3-1.8,1.3h-0.4v1c0,0.3,0,0.7,0,1H134h-0.3c0-0.7,0-1.6,0-2.3
	s0-1.7,0-2L134.4,41.2z M134.6,43.2c0.8,0,1.3-0.3,1.3-1s-0.5-0.8-1.1-0.8h-0.5v1.8L134.6,43.2z"/>
<path class="st0" d="M139.9,44c0.1,0.8-0.6,1.5-1.4,1.6c0,0-0.1,0-0.1,0c-0.8,0-1.5-0.6-1.5-1.4c0,0,0-0.1,0-0.1
	c-0.1-0.8,0.6-1.6,1.4-1.6c0,0,0.1,0,0.1,0c0.8,0,1.5,0.6,1.5,1.4C139.9,43.9,139.9,44,139.9,44z M137.4,44.1c0,0.7,0.3,1.3,0.9,1.3
	c0.6,0,1-0.6,1-1.4c0-0.7-0.3-1.3-0.9-1.3S137.4,43.3,137.4,44.1L137.4,44.1z"/>
<path class="st0" d="M142.9,43.2L142.9,43.2c-0.2-0.3-0.6-0.5-0.9-0.5c-0.7,0-1,0.7-1,1.3c-0.1,0.7,0.4,1.3,1,1.3c0,0,0.1,0,0.1,0
	c0.3,0,0.6-0.1,0.8-0.4l0.1,0.1l-0.1,0.3c-0.3,0.2-0.6,0.3-1,0.3c-0.8,0.1-1.5-0.6-1.6-1.4c0-0.1,0-0.1,0-0.2c0-0.8,0.6-1.6,1.4-1.6
	c0.1,0,0.1,0,0.2,0c0.4,0,0.7,0.1,1,0.3L142.9,43.2z"/>
<path class="st0" d="M145.9,43.2L145.9,43.2c-0.2-0.3-0.6-0.5-0.9-0.5c-0.7,0-1,0.7-1,1.3c-0.1,0.7,0.4,1.3,1,1.3c0,0,0.1,0,0.1,0
	c0.3,0,0.6-0.1,0.8-0.4l0.1,0.1l-0.1,0.3c-0.3,0.2-0.6,0.3-1,0.3c-0.8,0.1-1.5-0.5-1.6-1.4c0-0.1,0-0.2,0-0.2c0-0.8,0.6-1.6,1.4-1.6
	c0.1,0,0.1,0,0.2,0c0.4,0,0.7,0.1,1,0.3L145.9,43.2z"/>
<path class="st0" d="M146.8,45.5h-0.2c0-0.5,0-1.3,0-1.5s0-1.1,0-1.5h0.3h0.3c0,0.4-0.1,1.2-0.1,1.5s0,0.6,0,0.8
	c0.3-0.4,1.5-1.9,1.8-2.3h0.2h0.2c0,0.4,0,1.2,0,1.5s0,1.1,0,1.5h-0.3h-0.3c0-0.5,0.1-1.3,0.1-1.5s0-0.7,0-0.8
	c-0.7,0.7-1.3,1.5-1.8,2.3L146.8,45.5z"/>
<path class="st0" d="M150.4,45.5h-0.2c0-0.5,0-1.3,0-1.5s0-1.1,0-1.5h0.3h0.3c0,0.4-0.1,1.2-0.1,1.5s0,0.6,0,0.8
	c0.3-0.4,1.5-1.9,1.8-2.3h0.2h0.2c0,0.4,0,1.2,0,1.5s0,1.1,0,1.5h-0.3h-0.3c0-0.5,0.1-1.3,0.1-1.5s0-0.7,0-0.8
	c-0.7,0.7-1.3,1.5-1.8,2.3L150.4,45.5z M150.8,41.4c0.3,0.4,0.8,0.6,1.2,0.3c0.1-0.1,0.2-0.2,0.3-0.3l0,0c0,0.1,0,0.3,0.1,0.4
	c-0.3,0.1-0.6,0.2-0.9,0.2c-0.3,0-0.6-0.1-0.9-0.2C150.7,41.7,150.8,41.5,150.8,41.4L150.8,41.4z"/>
<path class="st0" d="M156,43.2L156,43.2c-0.2-0.3-0.6-0.5-0.9-0.5c-0.7,0-1,0.7-1,1.3c-0.1,0.7,0.4,1.3,1,1.3c0,0,0.1,0,0.1,0
	c0.3,0,0.6-0.1,0.8-0.4l0.1,0.1l-0.1,0.3c-0.3,0.2-0.6,0.3-1,0.3c-0.8,0-1.5-0.6-1.6-1.4c0-0.1,0-0.1,0-0.2c0-0.8,0.6-1.6,1.4-1.6
	c0.1,0,0.1,0,0.2,0c0.4,0,0.7,0.1,1,0.3L156,43.2z"/>
<path class="st0" d="M157.1,42.5h0.3c0,0.4,0,1.2,0,1.3h0.1c0.2,0,1.2-1.2,1.3-1.3h0.3h0.3l-1.4,1.3c0.2,0.2,1.1,1.3,1.6,1.8h-0.4
	h-0.4c-0.4-0.5-0.8-1.1-1.3-1.6h-0.1c0,0.2,0,1.1,0,1.6H157h-0.3c0-0.5,0.1-1.3,0.1-1.5s0-1.1-0.1-1.5L157.1,42.5z"/>
<path class="st0" d="M162.6,44c0.1,0.8-0.6,1.5-1.4,1.6c0,0-0.1,0-0.1,0c-0.8,0-1.5-0.6-1.5-1.4c0,0,0-0.1,0-0.1
	c-0.1-0.8,0.5-1.6,1.4-1.6c0.1,0,0.1,0,0.2,0c0.8,0,1.5,0.6,1.5,1.4C162.6,43.9,162.6,44,162.6,44z M160.1,44.1
	c0,0.7,0.3,1.3,0.9,1.3c0.6,0,1-0.6,1-1.4c0-0.7-0.3-1.3-0.9-1.3S160.1,43.3,160.1,44.1z"/>
<path class="st0" d="M163.4,45.5h-0.2c0-0.5,0-1.3,0-1.5s0-1.1,0-1.5h0.3h0.3c0,0.4-0.1,1.2-0.1,1.5s0,0.6,0,0.8
	c0.3-0.4,1.5-1.9,1.8-2.3h0.2h0.2c0,0.4,0,1.2,0,1.5s0,1.1,0,1.5h-0.3h-0.3c0-0.5,0.1-1.3,0.1-1.5s0-0.7,0-0.8
	c-0.7,0.7-1.3,1.5-1.8,2.3L163.4,45.5z M163.9,41.4c0.3,0.4,0.8,0.6,1.2,0.3c0.1-0.1,0.2-0.2,0.3-0.3l0,0c0,0.1,0,0.3,0.1,0.4
	c-0.3,0.1-0.6,0.2-0.9,0.2c-0.3,0-0.6-0.1-0.9-0.2C163.8,41.7,163.9,41.5,163.9,41.4L163.9,41.4z"/>
<path class="st0" d="M171.2,41h0.3v0.5c1.2,0,2.3,0.6,2.3,1.8c-0.1,1.2-1.1,2-2.3,1.9c0,0,0,0,0,0v0.6h-0.3h-0.3v-0.6
	c-1.2,0.1-2.2-0.7-2.3-1.9c0,0,0,0,0,0c0-1.2,1.1-1.8,2.3-1.8V41L171.2,41z M170.9,43.1c0-0.3,0-1.2,0-1.4c-0.9-0.1-1.6,0.6-1.7,1.4
	c0,0.1,0,0.1,0,0.2c0,0.9,0.7,1.7,1.6,1.7c0,0,0,0,0,0C170.9,44.7,170.9,43.5,170.9,43.1L170.9,43.1z M171.4,43.1c0,0.4,0,1.6,0,1.8
	c0.9,0,1.6-0.7,1.7-1.6c0,0,0,0,0,0c0-0.9-0.6-1.6-1.5-1.6c-0.1,0-0.1,0-0.2,0C171.4,41.9,171.4,42.8,171.4,43.1L171.4,43.1z"/>
<path class="st0" d="M176.8,45l-0.1,0.3c-0.3,0.2-0.7,0.4-1.1,0.3c-0.9-0.1-1.5-0.8-1.5-1.7c0.1-0.8,0.7-1.4,1.5-1.5
	c0.8,0,1.3,0.5,1.3,1.4c0,0,0,0.2,0,0.2h-0.8h-1.4c0,0.9,0.3,1.3,1,1.3C176.1,45.5,176.5,45.3,176.8,45L176.8,45z M176.3,43.8v-0.2
	c0.1-0.4-0.3-0.9-0.7-0.9c0,0,0,0,0,0c-0.5,0-0.8,0.5-0.9,1.1H176.3z"/>
<path class="st0" d="M177.5,45.2c0.4-0.9,0.8-1.9,1.2-2.8h0.2h0.2c0.2,0.4,0.9,2.1,1.2,2.8h0.3l-0.1,1.2h-0.2c0-0.1,0-0.2,0-0.3
	c0-0.5-0.2-0.5-0.3-0.5h-2.2c-0.3,0-0.4,0-0.4,0.6c0,0.1,0,0.1,0,0.2h-0.2l-0.1-1.2L177.5,45.2z M178.9,45.2h0.9
	c-0.3-0.8-0.6-1.5-0.9-2.2c-0.3,0.7-0.6,1.5-0.9,2.3L178.9,45.2z"/>
<path class="st0" d="M183.7,45l-0.1,0.3c-0.3,0.2-0.7,0.4-1.1,0.3c-0.9-0.1-1.5-0.8-1.5-1.7c0.1-0.8,0.7-1.4,1.5-1.5
	c0.8,0,1.3,0.5,1.3,1.4c0,0,0,0.2,0,0.2H183h-1.4c0,0.9,0.3,1.3,1,1.3C183,45.5,183.4,45.3,183.7,45L183.7,45z M183.2,43.8v-0.2
	c0.1-0.4-0.3-0.9-0.7-0.9c0,0,0,0,0,0c-0.5,0-0.8,0.5-0.9,1.1H183.2z"/>
<path class="st0" d="M184.7,42.5h0.3c0,0.1,0,0.5,0,0.5c0.2-0.4,0.6-0.6,1-0.6c0.7,0,1.3,0.6,1.3,1.3c0,0.1,0,0.1,0,0.2
	c0,0.8-0.4,1.7-1.4,1.7c-0.4,0-0.7-0.1-0.9-0.5c0,0.4,0,1.3,0,1.7h-0.3h-0.3c0-0.5,0.1-1.3,0.1-1.8v-0.7c0-0.5,0-1.3-0.1-1.8H184.7z
	 M184.9,44.1c0,0.6,0.2,1.3,0.9,1.3c0.7,0,0.9-0.4,0.9-1.3s-0.3-1.3-0.9-1.3S184.9,43.4,184.9,44.1z"/>
<path class="st0" d="M188,42.9c0.3-0.3,0.6-0.4,1-0.4c0.6,0,1,0.4,1.1,0.9c0,0,0,0.1,0,0.1V45c0,0.3,0.1,0.4,0.2,0.4h0.1v0.1
	c-0.1,0.1-0.3,0.1-0.4,0.1c-0.2,0-0.3-0.1-0.4-0.3v-0.1c-0.3,0.2-0.6,0.4-1,0.4c-0.6,0-0.9-0.3-0.9-0.8s0.4-0.8,1-0.9l0.6-0.1
	c0.2,0,0.3-0.1,0.3-0.3c0-0.7-0.3-0.8-0.7-0.8c-0.3,0-0.7,0.2-0.8,0.5H188L188,42.9z M189.6,44l-0.4,0.1c-0.4,0.1-0.9,0.2-0.9,0.7
	s0.2,0.5,0.6,0.5c0.3,0,0.5-0.1,0.7-0.3V44z"/>
<path class="st0" d="M193.7,46.4c0-0.1,0-0.2,0-0.3c0-0.5-0.2-0.5-0.4-0.5h-0.9h-1.1h-0.4c0-0.5,0-1.3,0-1.5s0-1.1,0-1.5h0.3h0.3
	c0,0.4,0,1.2,0,1.5s0,0.8,0,1.2c0.2,0,0.5,0,0.7,0.1c0.3,0,0.5,0,0.8-0.1c0-0.3,0-0.9,0-1.2s0-1.1-0.1-1.5h0.3h0.3
	c0,0.4,0,1.2,0,1.5s0,0.9,0,1.2h0.4L193.7,46.4L193.7,46.4z"/>
<path class="st0" d="M194.7,45.5h-0.2c0-0.5,0-1.3,0-1.5s0-1.1,0-1.5h0.3h0.3c0,0.4,0,1.2,0,1.5s0,0.6,0,0.8
	c0.3-0.4,1.5-1.9,1.8-2.3h0.2h0.2c0,0.4-0.1,1.2-0.1,1.5s0,1.1,0.1,1.5H197h-0.3c0-0.5,0-1.3,0-1.5s0-0.7,0-0.8
	c-0.7,0.7-1.3,1.5-1.8,2.3L194.7,45.5z"/>
<path class="st0" d="M198.3,45.5h-0.2c0-0.5,0.1-1.3,0.1-1.5s0-1.1-0.1-1.5h0.3h0.3c0,0.4-0.1,1.2-0.1,1.5s0,0.6,0,0.8
	c0.3-0.4,1.5-1.9,1.8-2.3h0.2h0.2c0,0.4,0,1.2,0,1.5s0,1.1,0,1.5h-0.3h-0.3c0-0.5,0.1-1.3,0.1-1.5s0-0.7,0-0.8
	c-0.7,0.7-1.3,1.5-1.8,2.3L198.3,45.5z"/>
<path class="st0" d="M32.6,0C14.6,0,0,14.6,0,32.6c0,18,14.6,32.6,32.6,32.6c18,0,32.6-14.6,32.6-32.6C65.2,14.6,50.6,0,32.6,0
	C32.6,0,32.6,0,32.6,0z M32.6,62.7C16,62.7,2.5,49.2,2.5,32.6S16,2.5,32.6,2.5c16.6,0,30.1,13.5,30.1,30.1
	C62.7,49.2,49.2,62.7,32.6,62.7L32.6,62.7z"/>
<path class="st1" d="M58.2,42.4c-0.1-1,0-2.5,0-3.6c0-0.9-0.2-1.8-0.6-2.7c0.2,0.2,0.5,0.2,0.7,0.3c-0.4-1-0.5-2.1-0.4-3.2
	c0.2-1.2,0.1-2.4-0.4-3.5c0.2,0.1,0.4,0.1,0.6,0.1L58,28.6c-0.3-1.3-0.6-4.1-1.3-4.9c0.1,0,0.2,0,0.2,0c-0.2-1.3-0.6-2.6-1.3-3.8
	c-0.3-0.5-0.8-1-1.3-1.3c0-0.1,0.1-0.1,0.1-0.2c0.1-0.2,0.1-0.5-0.1-0.6c0,0-0.1,0-0.2-0.1c-0.2,0-0.4,0-0.5-0.1
	c-0.5-0.2-1-0.3-1.5-0.5c-0.9-0.4-1.8-0.8-2.7-0.9c-1.3-0.3-2.6,0-3.6,0.7c-1.6,1.1-2.2,3.3-1.4,5.1c0,0.1,0.1,0.1,0.1,0.2
	c0.3,0.4,0.2,1-0.2,1.3c-0.7,0.7-1.6,1.2-2.5,1.3c-0.6,0.1-1.2-0.2-1.6-0.6c-0.9-0.9-1.6-2.2-1.8-3.5c-0.1-0.7-0.2-1.5-0.2-2.2
	c0-0.5,0.1-0.9,0.3-1.3c0.1,0.2,0.3,0.4,0.5,0.5c-0.2-0.5-0.2-1.1,0-1.6c0.1,0.2,0.2,0.4,0.4,0.6c-0.1-0.9,0.6-1.7,1.5-1.9
	c0.3-0.1,0.8-0.1,1.1-0.2c1.9-0.6,2.3-0.1,2.3-0.1c-0.1-0.3-0.4-0.6-0.7-0.8c1,0.5,2.1,0.7,3.2,0.6c0.6,0,1.1-0.5,1.1-1.1
	c0-0.4-0.2-0.8-0.6-1c0.3,0.4,0.2,1-0.2,1.3c-0.5,0.2-1,0.2-1.4,0.1c-0.5-0.2-1-0.4-1.4-0.7c0.7-0.3,1.5-0.2,2.2,0.3
	c0.1-0.7-0.2-1.3-0.8-1.7c-0.7-0.3-1.4-0.5-2.1-0.6c-0.5-0.5-1.2-0.8-1.8-0.9c-0.6-0.1-1.2-0.1-1.7,0.1c-1,0.2-1.4,0.4-2.4,0.6
	c-1.3,0.4-2.6,0.3-3.8-0.3c0.4,0.7,1,1.3,1.8,1.5c-0.5,0.1-1.1,0-1.5-0.3c0.3,0.5,0.8,0.8,1.3,1c-0.4,0.2-0.8,0.2-1.2,0
	c0.3,0.4,0.7,0.7,1.1,0.8c-1.3,1.5-2.1,3.3-2.6,6.7c-0.5-3.4-1.3-5.3-2.6-6.7c0.5-0.1,0.9-0.4,1.1-0.8c-0.4,0.2-0.8,0.2-1.2,0
	c0.5-0.2,1-0.5,1.3-1c-0.5,0.3-1,0.3-1.5,0.3c0.8-0.2,1.4-0.7,1.8-1.5c-1.2,0.6-2.5,0.7-3.8,0.3c-0.9-0.2-1.4-0.5-2.4-0.6
	c-0.6-0.1-1.2-0.1-1.7-0.1c-0.7,0.1-1.3,0.5-1.8,0.9c-0.7,0-1.5,0.2-2.1,0.6c-0.6,0.4-0.9,1-0.8,1.7c0.6-0.4,1.4-0.6,2.2-0.3
	c-0.4,0.3-0.9,0.5-1.4,0.7c-0.5,0.1-1,0.1-1.5-0.1c-0.4-0.3-0.5-0.8-0.2-1.3c-0.5,0.3-0.7,1-0.4,1.6c0.2,0.3,0.6,0.5,1,0.5
	c1.1,0.1,2.2-0.1,3.2-0.6c-0.3,0.2-0.5,0.4-0.7,0.8c0,0,0.3-0.5,2.3,0.1c0.3,0.1,0.8,0.2,1.1,0.2c0.9,0.1,1.6,1,1.5,1.9
	c0.2-0.2,0.3-0.4,0.4-0.6c0.2,0.5,0.2,1.1,0,1.6c0.2-0.1,0.4-0.3,0.5-0.5c0.2,0.4,0.3,0.9,0.3,1.3c0,0.7,0,1.5-0.2,2.2
	c-0.2,1.3-0.9,2.5-1.8,3.5c-0.4,0.4-1,0.7-1.5,0.6c-1-0.1-1.9-0.6-2.5-1.3c-0.4-0.3-0.5-0.9-0.2-1.3c0-0.1,0.1-0.1,0.1-0.2
	c0.8-1.8,0.3-3.9-1.3-5.1c-1.1-0.7-2.4-1-3.6-0.7c-0.9,0.2-1.9,0.5-2.7,0.9c-0.5,0.2-1,0.4-1.5,0.5c-0.2,0.1-0.4,0.1-0.5,0.1
	c-0.2,0-0.4,0.2-0.4,0.5c0,0.1,0,0.1,0.1,0.2c0,0.1,0.1,0.1,0.1,0.2c-0.5,0.3-1,0.8-1.3,1.3c-0.7,1.2-1.1,2.4-1.3,3.8
	c0.1,0,0.2,0,0.2,0c-0.7,0.8-1.1,3.7-1.3,4.9l-0.2,1.2c0.2,0,0.4-0.1,0.6-0.1c-0.4,1.1-0.6,2.3-0.4,3.5c0.1,1.1,0,2.1-0.4,3.1
	c0.3,0,0.5-0.1,0.7-0.3C7.2,36.9,7,37.9,7,38.8c0,1.1,0.1,2.6,0,3.6c-0.1,1.5-0.6,1.9-1,2.1c0.5,0.1,1,0,1.4-0.3
	C7.6,44.1,7.9,44,8.2,44c0.6,0,1.2-0.3,1.6-0.7c0.2-0.2,0.4-0.3,0.7-0.3c0.6-0.1,1.1-0.3,1.5-0.8c0.1-0.1,0.2-0.1,0.3-0.2
	c2.6-0.6,2.6-3.3,2.7-4.2c0.4-0.1,0.8-0.4,1.1-0.8c0-0.1,0.1-0.1,0.2-0.1c1.1,0.3,1.8-1.5,2-2.1c0.2-0.6,0.3-1.1,0.4-1.7
	c0,0.5,0.9,1.3,1.7,0c0,1.9,1.5,1.6,1.9,0.3c0.4,2.3,2,1.2,2-0.5c0,2.7,1.6,2.3,1.6,1.5c0.1,0.3,0.3,0.6,0.5,0.8
	c-3.8,0.7-2.7,2.7-4.4,3.7c0.6,0.2,1.1-0.1,1,0c-0.4,0.5-0.6,1.2-0.7,1.8c0,0-2,1.9-2.8,2.7c-0.3,0.3-0.6,0.5-1,0.8
	c-0.1,0.1-0.2,0.2-0.4,0.2c0-0.1,0-0.2,0-0.2c-0.1-0.6-0.3-1.2-0.6-1.8c-0.4-0.7-1.4-0.9-2.1-0.5c0,0,0,0-0.1,0
	c-0.3,0.2-0.6,0.3-0.9,0.3c-0.6,0-1.1,0.5-1.1,1.2c0.4-0.3,0.9-0.2,1.2,0.1c-1,0.2-1.5,1.1-1.2,1.6c0.1-0.1,0.2-0.2,0.3-0.3
	c0.4-0.2,0.8-0.1,0.9,0.1c0.2,0.4,0.6,0.7,1.1,0.7c0.8,0.1,1.7,0.2,2.5,0.3c1.2,0.2,1.2,1,1.4,1.5c0.2,0.5,0.8,0.8,1.3,0.6
	c0.1,0,0.2-0.1,0.2-0.1c0.1,0.3,0,0.6-0.3,0.7c0,0-0.1,0-0.1,0c0.4,0.1,0.8-0.1,1-0.5c0.4-0.6,0.2-1.4-0.4-1.8l-0.2-0.1L21,46.2
	c-0.2-0.1-0.3-0.3-0.5-0.4c-0.3-0.2-0.3-0.6-0.1-0.9c0.2-0.3,0.4-0.5,0.6-0.8c0.7-0.6,1.5-1.2,2.2-1.8c0.2-0.2,0.5-0.3,0.7-0.5
	c0.2-0.1,0.5-0.2,0.8-0.1c0.3,0.1,0.7,0.1,1-0.2c0.9-0.7,2.1-1.1,3.3-1.2c-0.3,0.2-0.5,0.5-0.6,0.9c-0.1,0.3-0.2,0.6-0.4,0.9
	c-1.3,3.2-2.7,6.3-4,9.5c-0.4,0.9-0.1,2,0.8,2.4c0.1,0,0.1,0.1,0.2,0.1c0.8,0.4,1.7,0.1,2.2-0.6c-0.2,0.5-0.2,1,0,1.4
	c0.2,0.4,0.6,0.8,1,0.9c0.4,0.2,0.9,0.3,1.4,0.2c0.5-0.1,0.8-0.4,1-0.9c0,1,0.7,1.8,1.7,1.8c0,0,0,0,0,0l0,0h0.6l0,0
	c0.9-0.1,1.6-0.9,1.6-1.8c0.2,0.4,0.5,0.8,1,0.9c0.5,0.1,1,0,1.4-0.2c0.4-0.2,0.8-0.5,1-0.9c0.2-0.5,0.2-1,0-1.4
	c0.5,0.7,1.4,1,2.2,0.6c0.9-0.3,1.4-1.4,1.1-2.3c0-0.1-0.1-0.1-0.1-0.2c-1.3-3.2-2.7-6.3-4-9.5l-0.3-0.9c-0.1-0.4-0.3-0.7-0.6-0.9
	c1.2,0.1,2.3,0.5,3.3,1.2c0.3,0.2,0.7,0.3,1,0.2c0.3-0.1,0.5-0.1,0.8,0.1c0.3,0.1,0.5,0.3,0.7,0.5c0.7,0.6,1.5,1.2,2.2,1.8
	c0.2,0.2,0.5,0.5,0.6,0.8c0.2,0.3,0.1,0.7-0.1,0.9c-0.2,0.2-0.3,0.3-0.5,0.4l-0.1,0.1l-0.2,0.1c-0.6,0.4-0.8,1.2-0.4,1.8
	c0.2,0.3,0.6,0.5,1,0.5c-0.3-0.1-0.5-0.4-0.4-0.7c0,0,0-0.1,0-0.1c0.5,0.3,1.1,0.2,1.4-0.2c0-0.1,0.1-0.1,0.1-0.2
	c0.2-0.6,0.2-1.4,1.4-1.5c0.9-0.1,1.7-0.2,2.6-0.3c0.5,0,0.9-0.3,1.1-0.7c0.1-0.2,0.5-0.4,0.9-0.1c0.1,0.1,0.2,0.2,0.3,0.3
	c0.3-0.6-0.2-1.4-1.2-1.6c0.3-0.4,0.9-0.4,1.3-0.1c0-0.6-0.5-1.1-1.1-1.2c-0.3,0-0.7-0.1-0.9-0.3c-0.7-0.5-1.6-0.3-2.1,0.4
	c0,0,0,0,0,0.1c-0.4,0.5-0.6,1.2-0.7,1.8c0,0,0,0.1,0,0.2c-0.1-0.1-0.2-0.1-0.4-0.2c-0.3-0.3-0.7-0.5-1-0.8
	c-0.8-0.7-2.8-2.7-2.8-2.7c-0.1-0.6-0.3-1.3-0.7-1.8c-0.1-0.2,0.4,0.2,1,0c-1.7-1-0.6-3-4.4-3.7c0.2-0.3,0.4-0.6,0.6-0.9
	c-0.1,0.8,1.6,1.2,1.6-1.5c0,1.8,1.7,2.9,2,0.5c0.4,1.3,1.9,1.6,1.9-0.3c0.8,1.3,1.7,0.5,1.7,0c0.1,0.6,0.2,1.2,0.4,1.7
	c0.2,0.6,0.9,2.4,2,2.1c0.1,0,0.2,0.1,0.2,0.1c0.2,0.4,0.6,0.7,1.1,0.8c0,0.8,0.1,3.6,2.7,4.2c0.1,0,0.2,0.1,0.3,0.2
	c0.4,0.5,0.9,0.8,1.5,0.8c0.2,0,0.5,0.1,0.7,0.3c0.4,0.4,1,0.7,1.6,0.7c0.3,0,0.6,0.1,0.8,0.2c0.4,0.3,0.9,0.4,1.4,0.3
	C58.8,44.3,58.3,43.9,58.2,42.4z"/>
<ellipse class="st0" cx="23.4" cy="11.8" rx="0.1" ry="0.1"/>
<ellipse class="st0" cx="41.8" cy="11.8" rx="0.2" ry="0.1"/>
<path class="st0" d="M58.2,42.4c-0.1-1,0-2.5,0-3.6c0-0.9-0.2-1.8-0.6-2.7c0.2,0.2,0.5,0.2,0.7,0.3c-0.4-1-0.5-2.1-0.4-3.2
	c0.2-1.2,0.1-2.4-0.4-3.5c0.2,0.1,0.4,0.1,0.6,0.1L58,28.6c-0.3-1.3-0.6-4.1-1.3-4.9c0.1,0,0.2,0,0.2,0c-0.2-1.3-0.6-2.6-1.3-3.8
	c-0.3-0.5-0.8-1-1.3-1.3c0-0.1,0.1-0.1,0.1-0.2c0.1-0.2,0.1-0.5-0.1-0.6c0,0-0.1,0-0.2-0.1c-0.2,0-0.4,0-0.5-0.1
	c-0.5-0.2-1-0.3-1.5-0.5c-0.9-0.4-1.8-0.8-2.7-0.9c-1.3-0.3-2.6,0-3.6,0.7c-1.6,1.1-2.2,3.3-1.4,5.1c0,0.1,0.1,0.1,0.1,0.2
	c0.3,0.4,0.2,1-0.2,1.3c-0.7,0.7-1.6,1.2-2.5,1.3c-0.6,0.1-1.2-0.2-1.6-0.6c-0.9-0.9-1.6-2.2-1.8-3.5c-0.1-0.7-0.2-1.5-0.2-2.2
	c0-0.5,0.1-0.9,0.3-1.3c0.1,0.2,0.3,0.4,0.5,0.5c-0.2-0.5-0.2-1.1,0-1.6c0.1,0.2,0.2,0.4,0.4,0.6c-0.1-0.9,0.6-1.7,1.5-1.9
	c0.3-0.1,0.8-0.1,1.1-0.2c1.9-0.6,2.3-0.1,2.3-0.1c-0.1-0.3-0.4-0.6-0.7-0.8c1,0.5,2.1,0.7,3.2,0.6c0.6,0,1.1-0.5,1.1-1.1
	c0-0.4-0.2-0.8-0.6-1c0.3,0.4,0.2,1-0.2,1.3c-0.5,0.2-1,0.2-1.4,0.1c-0.5-0.2-1-0.4-1.4-0.7c0.7-0.3,1.5-0.2,2.2,0.3
	c0.1-0.7-0.2-1.3-0.8-1.7c-0.7-0.3-1.4-0.5-2.1-0.6c-0.5-0.5-1.2-0.8-1.8-0.9c-0.6-0.1-1.2-0.1-1.7,0.1c-1,0.2-1.4,0.4-2.4,0.6
	c-1.3,0.4-2.6,0.3-3.8-0.3c0.4,0.7,1,1.3,1.8,1.5c-0.5,0.1-1.1,0-1.5-0.3c0.3,0.5,0.8,0.8,1.3,1c-0.4,0.2-0.8,0.2-1.2,0
	c0.3,0.4,0.7,0.7,1.1,0.8c-1.3,1.5-2.1,3.3-2.6,6.7c-0.5-3.4-1.3-5.3-2.6-6.7c0.5-0.1,0.9-0.4,1.1-0.8c-0.4,0.2-0.8,0.2-1.2,0
	c0.5-0.2,1-0.5,1.3-1c-0.5,0.3-1,0.3-1.5,0.3c0.8-0.2,1.4-0.7,1.8-1.5c-1.2,0.6-2.5,0.7-3.8,0.3c-0.9-0.2-1.4-0.5-2.4-0.6
	c-0.6-0.1-1.2-0.1-1.7-0.1c-0.7,0.1-1.3,0.4-1.8,0.9c-0.7,0-1.5,0.2-2.1,0.6c-0.6,0.4-0.9,1-0.8,1.7c0.6-0.4,1.4-0.6,2.2-0.3
	c-0.4,0.3-0.9,0.5-1.4,0.7c-0.5,0.1-1,0.1-1.5-0.1c-0.4-0.3-0.5-0.8-0.2-1.3c-0.5,0.3-0.7,1-0.4,1.6c0.2,0.3,0.6,0.5,1,0.5
	c1.1,0.1,2.2-0.1,3.2-0.6c-0.3,0.2-0.5,0.4-0.7,0.8c0,0,0.3-0.5,2.3,0.1c0.3,0.1,0.8,0.2,1.1,0.2c0.9,0.1,1.6,1,1.5,1.9
	c0.2-0.2,0.3-0.4,0.4-0.6c0.2,0.5,0.2,1.1,0,1.6c0.2-0.1,0.4-0.3,0.5-0.5c0.2,0.4,0.3,0.9,0.3,1.3c0,0.7,0,1.5-0.2,2.2
	c-0.2,1.3-0.9,2.5-1.8,3.5c-0.4,0.4-1,0.7-1.5,0.6c-1-0.1-1.9-0.6-2.5-1.3c-0.4-0.3-0.5-0.9-0.2-1.3c0-0.1,0.1-0.1,0.1-0.2
	c0.8-1.8,0.3-3.9-1.3-5.1c-1.1-0.7-2.4-1-3.6-0.7c-0.9,0.2-1.9,0.5-2.7,0.9c-0.5,0.2-1,0.4-1.5,0.5c-0.2,0.1-0.4,0.1-0.5,0.1
	c-0.2,0-0.4,0.2-0.4,0.5c0,0.1,0,0.1,0.1,0.2c0,0.1,0.1,0.1,0.1,0.2c-0.5,0.3-1,0.8-1.3,1.3c-0.7,1.2-1.1,2.4-1.3,3.8
	c0.1,0,0.2,0,0.2,0c-0.7,0.8-1.1,3.7-1.3,4.9l-0.2,1.2c0.2,0,0.4-0.1,0.6-0.1c-0.4,1.1-0.6,2.3-0.4,3.5c0.1,1.1,0,2.1-0.4,3.1
	c0.3,0,0.5-0.1,0.7-0.3C7.2,36.9,7,37.9,7,38.8c0,1.1,0.1,2.6,0,3.6c-0.1,1.5-0.6,1.9-1,2.1c0.5,0.1,1,0,1.4-0.3
	C7.6,44.1,7.9,44,8.2,44c0.6,0,1.2-0.3,1.6-0.7c0.2-0.2,0.4-0.3,0.7-0.3c0.6-0.1,1.1-0.3,1.5-0.8c0.1-0.1,0.2-0.1,0.3-0.2
	c2.6-0.6,2.6-3.3,2.7-4.2c0.4-0.1,0.8-0.4,1.1-0.8c0-0.1,0.1-0.1,0.2-0.1c1.1,0.3,1.8-1.5,2-2.1c0.2-0.6,0.3-1.1,0.4-1.7
	c0,0.5,0.9,1.3,1.7,0c0,1.9,1.5,1.6,1.9,0.3c0.4,2.3,2,1.2,2-0.5c0,2.7,1.6,2.3,1.6,1.5c0.1,0.3,0.3,0.6,0.5,0.8
	c-3.8,0.7-2.7,2.7-4.4,3.7c0.6,0.2,1.1-0.1,1,0c-0.4,0.5-0.6,1.2-0.7,1.8c0,0-2,1.9-2.8,2.7c-0.3,0.3-0.6,0.5-1,0.8
	c-0.1,0.1-0.2,0.2-0.4,0.2c0-0.1,0-0.2,0-0.2c-0.1-0.6-0.3-1.2-0.6-1.8c-0.4-0.7-1.4-0.9-2.1-0.5c0,0,0,0-0.1,0
	c-0.3,0.2-0.6,0.3-0.9,0.3c-0.6,0-1.1,0.5-1.1,1.2c0.4-0.3,0.9-0.2,1.2,0.1c-1,0.2-1.5,1.1-1.2,1.6c0.1-0.1,0.2-0.2,0.3-0.3
	c0.4-0.2,0.8-0.1,0.9,0.1c0.2,0.4,0.6,0.7,1.1,0.7c0.8,0.1,1.7,0.2,2.5,0.3c1.2,0.2,1.2,1,1.4,1.5c0.2,0.5,0.8,0.8,1.3,0.6
	c0.1,0,0.2-0.1,0.2-0.1c0.1,0.3,0,0.6-0.3,0.7c0,0-0.1,0-0.1,0c0.4,0.1,0.8-0.1,1-0.5c0.4-0.6,0.2-1.4-0.4-1.8l-0.2-0.1L21,46.2
	c-0.2-0.1-0.3-0.3-0.5-0.4c-0.3-0.2-0.3-0.6-0.1-0.9c0.2-0.3,0.4-0.5,0.6-0.8c0.7-0.6,1.5-1.2,2.2-1.8c0.2-0.2,0.5-0.3,0.7-0.5
	c0.2-0.1,0.5-0.2,0.8-0.1c0.3,0.1,0.7,0.1,1-0.2c0.9-0.7,2.1-1.1,3.3-1.2c-0.3,0.2-0.5,0.5-0.6,0.9c-0.1,0.3-0.2,0.6-0.4,0.9
	c-1.3,3.2-2.7,6.3-4,9.5c-0.4,0.9-0.1,2,0.8,2.4c0.1,0,0.1,0.1,0.2,0.1c0.8,0.4,1.7,0.1,2.2-0.6c-0.2,0.5-0.2,1,0,1.4
	c0.2,0.4,0.6,0.8,1,0.9c0.4,0.2,0.9,0.3,1.4,0.2c0.5-0.1,0.8-0.4,1-0.9c0,1,0.7,1.8,1.7,1.8c0,0,0,0,0,0l0,0h0.6l0,0
	c0.9-0.1,1.6-0.9,1.6-1.8c0.2,0.4,0.5,0.8,1,0.9c0.5,0.1,1,0,1.4-0.2c0.4-0.2,0.8-0.5,1-0.9c0.2-0.5,0.2-1,0-1.4
	c0.5,0.7,1.4,1,2.2,0.6c0.9-0.3,1.4-1.4,1.1-2.3c0-0.1-0.1-0.1-0.1-0.2c-1.3-3.2-2.7-6.3-4-9.5l-0.3-0.9c-0.1-0.4-0.3-0.7-0.6-0.9
	c1.2,0.1,2.3,0.5,3.3,1.2c0.3,0.2,0.7,0.3,1,0.2c0.3-0.1,0.5-0.1,0.8,0.1c0.3,0.1,0.5,0.3,0.7,0.5c0.7,0.6,1.5,1.2,2.2,1.8
	c0.2,0.2,0.5,0.5,0.6,0.8c0.2,0.3,0.1,0.7-0.1,0.9c-0.2,0.1-0.3,0.3-0.5,0.4l-0.1,0.1l-0.2,0.1c-0.6,0.4-0.8,1.2-0.4,1.8
	c0.2,0.3,0.6,0.5,1,0.5c-0.3-0.1-0.5-0.4-0.4-0.7c0,0,0-0.1,0-0.1c0.5,0.3,1.1,0.2,1.4-0.2c0-0.1,0.1-0.1,0.1-0.2
	c0.2-0.6,0.2-1.4,1.4-1.5c0.9-0.1,1.7-0.2,2.6-0.3c0.5,0,0.9-0.3,1.1-0.7c0.1-0.2,0.5-0.4,0.9-0.1c0.1,0.1,0.2,0.2,0.3,0.3
	c0.3-0.6-0.2-1.4-1.2-1.6c0.3-0.4,0.9-0.4,1.3-0.1c0-0.6-0.5-1.1-1.1-1.2c-0.3,0-0.7-0.1-0.9-0.3c-0.7-0.5-1.6-0.3-2.1,0.4
	c0,0,0,0,0,0.1c-0.4,0.5-0.6,1.2-0.7,1.8c0,0,0,0.1,0,0.2c-0.1-0.1-0.2-0.1-0.4-0.2c-0.3-0.3-0.7-0.5-1-0.8
	c-0.8-0.7-2.8-2.7-2.8-2.7c-0.1-0.6-0.3-1.3-0.7-1.8c-0.1-0.2,0.4,0.2,1,0c-1.7-1-0.6-3-4.4-3.7c0.2-0.3,0.4-0.6,0.6-0.9
	c-0.1,0.8,1.6,1.2,1.6-1.5c0,1.8,1.7,2.9,2,0.5c0.4,1.3,1.9,1.6,1.9-0.3c0.8,1.3,1.7,0.5,1.7,0c0.1,0.6,0.2,1.2,0.4,1.7
	c0.2,0.6,0.9,2.4,2,2.1c0.1,0,0.2,0.1,0.2,0.1c0.2,0.4,0.6,0.7,1.1,0.8c0,0.8,0.1,3.6,2.7,4.2c0.1,0,0.2,0.1,0.3,0.2
	c0.4,0.5,0.9,0.8,1.5,0.8c0.2,0,0.5,0.1,0.7,0.3c0.4,0.4,1,0.7,1.6,0.7c0.3,0,0.6,0.1,0.8,0.2c0.4,0.3,0.9,0.4,1.4,0.3
	C58.8,44.3,58.3,43.9,58.2,42.4z M22.5,38.7c0.1-0.1,0.2-0.2,0.3-0.3c0.1-0.2,0.3-0.1,0.3,0.1S22.8,38.8,22.5,38.7z M20.6,42.6
	c-0.3,0.5-0.4,1-0.5,1.6c0,0.3-0.2,0.5-0.5,0.5c-0.1,0-0.2,0-0.2-0.1c-0.3-0.1-0.7-0.2-1-0.2C19.3,44.1,20.1,43.5,20.6,42.6z
	 M17.8,43.6c0.1,0.2,0.1,0.5,0.1,0.7c-0.1-0.3-0.2-0.5-0.4-0.8c0,0,0,0,0-0.1c0-0.1,0.1-0.1,0.1-0.1h0.1
	C17.8,43.5,17.8,43.6,17.8,43.6L17.8,43.6z M17,43.7c0.1-0.2,0.2-0.2,0.3-0.2c0.2,0.3,0.3,0.5,0.4,0.8L17,44
	C17,43.9,17,43.8,17,43.7L17,43.7z M16.8,43.6c-0.1,0.1-0.1,0.2-0.1,0.3l-0.4-0.2c0,0,0-0.1,0-0.1c0-0.1,0-0.2,0.1-0.3
	c0.1-0.1,0.1-0.2,0.3-0.2c0.1,0,0.1,0,0.2,0l0.2,0.2l0,0l0.1,0.1C17,43.4,16.9,43.5,16.8,43.6L16.8,43.6z M17.5,42.7L17.5,42.7
	c0.1,0.1,0.1,0.3,0.2,0.4l-0.1,0.1c-0.1,0-0.1,0.1-0.1,0.2c-0.1-0.1-0.2-0.2-0.3-0.3c0,0,0,0,0-0.1c0-0.1,0.1-0.1,0.1-0.2
	C17.3,42.8,17.4,42.8,17.5,42.7L17.5,42.7z M17,42.2C17,42.2,17.1,42.2,17,42.2c0.2,0.1,0.3,0.2,0.4,0.4c-0.1,0-0.2,0.1-0.2,0.1
	c-0.1,0.1-0.1,0.1-0.2,0.2l-0.3-0.2c0,0,0-0.1,0-0.1C16.7,42.4,16.8,42.3,17,42.2L17,42.2z M16.1,42c0.1-0.1,0.1-0.1,0.2-0.2
	c0.1,0,0.3,0.1,0.4,0.1h0.1c-0.1,0.1-0.2,0.1-0.3,0.2c-0.1,0.1-0.1,0.2-0.1,0.3l-0.4-0.2c0,0,0-0.1,0-0.1
	C16.1,42.2,16.1,42.1,16.1,42L16.1,42z M16.2,42.6L16.2,42.6L16.2,42.6l0.2,0.1l0,0c-0.1,0.1-0.3,0.2-0.3,0.3
	C16,43.2,16,43.4,16,43.5l-0.4-0.1c0-0.1,0-0.1,0-0.2c0-0.1,0.1-0.3,0.2-0.4c0.1-0.1,0.2-0.2,0.3-0.2C16.1,42.6,16.2,42.6,16.2,42.6
	L16.2,42.6z M15.5,42.7c-0.1,0.1-0.2,0.3-0.2,0.5c0,0,0,0.1,0,0.1c-0.2-0.1-0.4-0.1-0.7-0.1c0-0.5,0.4-0.8,0.9-0.8
	c0.1,0,0.2,0,0.3,0C15.7,42.5,15.6,42.6,15.5,42.7L15.5,42.7z M16,41.8L16,41.8c-0.1,0.2-0.1,0.3-0.1,0.4c-0.2-0.1-0.4-0.1-0.6-0.1
	C15.4,42,15.7,41.9,16,41.8L16,41.8z M13.5,43c0.1-0.4,0.6-0.8,1.6-0.6c-0.4,0.1-0.6,0.4-0.6,0.8C14.2,42.9,13.8,42.9,13.5,43
	L13.5,43z M14.2,44.4c-0.3-0.1-0.6,0-0.8,0.2c0.1-0.5,0.6-0.9,1.1-0.9C14.2,43.8,14.1,44.1,14.2,44.4L14.2,44.4z M14.4,44.5
	c-0.1-0.3,0.1-1,0.6-0.9h0.2c-0.2,0.2-0.4,0.6-0.3,0.9c0,0.2,0.1,0.5,0.2,0.7C14.8,45.1,14.6,44.9,14.4,44.5L14.4,44.5z M15.5,45.3
	c-0.2-0.2-0.4-0.5-0.3-0.7c0-0.4,0.2-0.8,0.5-0.8l0.4,0.2c-0.2,0.2-0.3,0.5-0.3,0.8c0,0.2,0,0.4,0.1,0.6L15.5,45.3z M16.7,45.4
	l-0.5-0.1C16.1,45.2,16,45,16,44.7c0-0.4,0.2-0.6,0.3-0.7l0.5,0.2c-0.2,0.2-0.2,0.4-0.2,0.7C16.6,45.1,16.6,45.3,16.7,45.4
	L16.7,45.4z M17.5,45.5l-0.5-0.1c-0.1,0-0.2-0.3-0.2-0.5s0.1-0.6,0.2-0.6l0.3,0.1l0.3,0.1c-0.2,0.1-0.3,0.3-0.3,0.5
	C17.4,45.3,17.5,45.4,17.5,45.5L17.5,45.5z M18.2,45.6c-0.3,0-0.5-0.2-0.5-0.5c0-0.2,0.1-0.4,0.3-0.4h0.1c0.6-0.1,1.1,0.1,1.6,0.4
	c-0.5,0-0.9,0.1-1.2,0.4C18.4,45.6,18.3,45.7,18.2,45.6L18.2,45.6z M19,45.9c-0.1-0.1-0.2-0.2-0.4-0.2c0.2-0.3,0.4-0.4,0.8-0.5
	C19.1,45.4,18.9,45.7,19,45.9L19,45.9z M19.2,45.9c0-0.3,0.2-0.5,0.6-0.5s0.5,0.2,0.5,0.6c0,0.3-0.2,0.5-0.5,0.5
	C19.4,46.5,19.2,46.2,19.2,45.9C19.1,45.9,19.1,45.9,19.2,45.9L19.2,45.9z M20.5,45.9l0.2,0.2c0.2,0.2,0.4,0.3,0.6,0.5
	c0.3,0.4,0.4,0.9,0.3,1.4c-0.1,0.2-0.2,0.4-0.4,0.4c0.2-0.3,0.2-0.6,0-0.9c-0.3,0.4-0.9,0.4-1.2,0.1c-0.1-0.1-0.2-0.3-0.3-0.4
	l-0.1-0.4v-0.2c0.1,0,0.2,0.1,0.3,0.1c0.1,0,0.3,0,0.4-0.1C20.3,46.4,20.5,46.2,20.5,45.9L20.5,45.9z M21.1,43.5
	c-0.1,0.2-0.2,0.4-0.4,0.5c-0.2,0.2-0.4,0.4-0.5,0.6c0.1-1.1,0.6-2.2,1.3-3c-0.2,0.4-0.3,0.8-0.3,1.2C21.2,43.1,21.2,43.4,21.1,43.5
	L21.1,43.5z M22.2,42.2c0,0.2,0,0.4-0.1,0.5c-0.1,0.2-0.2,0.3-0.4,0.5l-0.5,0.5c0.1-0.2,0.2-0.5,0.2-0.8c0.1-0.7,0.4-1.4,0.9-2
	C22.2,41.3,22.1,41.8,22.2,42.2L22.2,42.2z M23.2,41.7c0,0.2-0.1,0.4-0.3,0.5l-0.6,0.5c0.1-0.2,0.2-0.5,0.1-0.7
	c-0.1-1,0.1-2,0.7-2.9c-0.2,0.6-0.2,1.3,0,1.9C23.2,41.2,23.2,41.5,23.2,41.7L23.2,41.7z M45.8,46.7l-0.1,0.4
	c-0.1,0.5-0.6,0.7-1.1,0.6c-0.2,0-0.3-0.1-0.4-0.3c-0.2,0.3-0.2,0.6,0,0.9c-0.2-0.1-0.3-0.3-0.4-0.4c-0.2-0.5-0.1-1,0.3-1.4
	c0.2-0.2,0.4-0.4,0.6-0.5l0.2-0.2c0,0.3,0.2,0.5,0.4,0.6c0.1,0.1,0.2,0.1,0.4,0.1c0.1,0,0.2,0,0.3-0.1L45.8,46.7z M45.5,46.4
	c-0.3,0-0.5-0.2-0.5-0.6s0.2-0.5,0.6-0.5c0.3,0,0.5,0.2,0.5,0.5C46.1,46.1,45.9,46.4,45.5,46.4C45.6,46.5,45.5,46.5,45.5,46.4
	L45.5,46.4z M46.3,45.9c0-0.3-0.1-0.6-0.4-0.7c0.3,0,0.6,0.2,0.8,0.5C46.5,45.7,46.3,45.8,46.3,45.9L46.3,45.9z M48.2,45.4l-0.5,0.1
	c0.1-0.1,0.1-0.3,0.1-0.4c0-0.2-0.1-0.4-0.3-0.5l0.3-0.1l0.3-0.1c0.1,0,0.2,0.3,0.2,0.6S48.3,45.5,48.2,45.4L48.2,45.4z M48.2,43.7
	c0,0.1,0.1,0.2,0.1,0.3l-0.7,0.4c0.1-0.3,0.2-0.6,0.4-0.8C47.9,43.6,48.1,43.6,48.2,43.7L48.2,43.7z M48.1,43.3L48.1,43.3L48.1,43.3
	l0.3-0.3c0.1,0,0.1,0,0.2,0c0.1,0.1,0.2,0.1,0.3,0.2c0.1,0.1,0.1,0.2,0.1,0.3c0,0,0,0.1,0,0.1l-0.4,0.2c0-0.1,0-0.2-0.1-0.3
	C48.3,43.5,48.2,43.4,48.1,43.3L48.1,43.3z M48.9,45.3l-0.5,0.1c0.1-0.2,0.1-0.3,0.1-0.5c0-0.2-0.1-0.4-0.2-0.5l0.5-0.2
	c0.2,0,0.3,0.3,0.3,0.7c0,0.2-0.1,0.5-0.2,0.6L48.9,45.3z M49.7,45.2l-0.3,0.1c0.1-0.2,0.1-0.4,0.1-0.6c0-0.3-0.1-0.6-0.3-0.8
	l0.4-0.2c0.2,0,0.4,0.3,0.4,0.8c0,0.3-0.1,0.6-0.4,0.8L49.7,45.2z M49.7,42.6c-0.1-0.1-0.2-0.2-0.3-0.2c0.1,0,0.2,0,0.3,0
	c0.5,0,0.9,0.3,0.9,0.8c-0.2,0-0.4,0.1-0.7,0.1c0,0,0-0.1,0-0.1c-0.1-0.2-0.1-0.3-0.3-0.4L49.7,42.6z M50.8,44.5
	c-0.1,0.3-0.3,0.6-0.7,0.7c0.1-0.2,0.2-0.4,0.2-0.7c0-0.3-0.1-0.7-0.3-0.9h0.2c0.5,0,0.7,0.7,0.6,1L50.8,44.5z M51.8,44.5
	c-0.2-0.2-0.5-0.3-0.8-0.2c0.1-0.3-0.1-0.6-0.3-0.8c0.6,0,1.1,0.5,1.1,1c0,0,0,0,0,0V44.5z M51.7,42.9c-0.3-0.2-0.7-0.1-1,0.1
	c0-0.4-0.3-0.7-0.6-0.8c1-0.1,1.5,0.3,1.6,0.8V42.9z M50,42.1c-0.2,0-0.4,0-0.6,0.1c0-0.1,0-0.2-0.1-0.3l-0.1-0.1
	c0.3,0.1,0.6,0.2,0.7,0.5L50,42.1z M49.5,42.8c0.1,0.1,0.1,0.2,0.2,0.4c0,0.1,0,0.1,0,0.2l-0.4,0.1c0-0.2-0.1-0.3-0.1-0.4
	c-0.1-0.1-0.2-0.3-0.3-0.3l0,0l0.2-0.1l0,0l0,0c0.1,0,0.1,0,0.2,0c0.1,0.1,0.3,0.2,0.3,0.4L49.5,42.8z M48.5,41.8
	c0.1-0.1,0.3-0.1,0.4-0.1c0.1,0,0.2,0.1,0.2,0.2c0,0.1,0.1,0.2,0.1,0.2c0,0,0,0.1,0,0.1l-0.4,0.2c0-0.1-0.1-0.2-0.1-0.3
	C48.6,42,48.5,42,48.5,41.8L48.5,41.8z M48.1,42.1C48.2,42.1,48.2,42.1,48.1,42.1c0.2,0.1,0.3,0.2,0.4,0.4c0,0,0,0.1,0,0.1l-0.3,0.2
	c-0.1-0.2-0.2-0.3-0.4-0.3c0.1-0.1,0.2-0.1,0.3-0.2L48.1,42.1z M47.7,42.6L47.7,42.6c0.1,0,0.1,0.1,0.2,0.1c0.1,0,0.1,0.1,0.1,0.2
	c0,0,0,0,0,0.1c-0.1,0.1-0.2,0.2-0.3,0.3c0-0.1-0.1-0.1-0.1-0.2L47.5,43c0.1-0.1,0.1-0.2,0.2-0.3L47.7,42.6z M47.4,43.5
	c0-0.1,0.1-0.2,0.1-0.3h0.1c0,0,0.1,0.1,0.1,0.1c0,0,0,0,0,0.1c-0.1,0.2-0.3,0.5-0.4,0.8c0-0.2,0-0.3,0.1-0.5L47.4,43.5z M47.1,44.6
	L47.1,44.6c0.3,0.1,0.5,0.3,0.4,0.6c-0.1,0.2-0.2,0.3-0.4,0.3c-0.1,0-0.2-0.1-0.3-0.1c-0.3-0.3-0.8-0.5-1.2-0.4
	c0.5-0.3,1-0.3,1.6-0.2L47.1,44.6z M46.8,44.4c-0.3,0-0.7,0.1-1,0.2c-0.3,0.1-0.6,0-0.7-0.2c0-0.1-0.1-0.1-0.1-0.2
	c-0.1-0.6-0.3-1.1-0.5-1.6c0.5,0.9,1.3,1.6,2.2,2L46.8,44.4z M45,44.6c-0.1-0.2-0.3-0.4-0.5-0.6c-0.2-0.1-0.3-0.3-0.4-0.5
	C44,43.2,44,43,44,42.8c0-0.4-0.2-0.8-0.3-1.2c0.8,0.9,1.2,1.9,1.3,3.1L45,44.6z M43.8,42.8c0,0.3,0.1,0.5,0.2,0.8l-0.5-0.5
	c-0.1-0.1-0.3-0.3-0.4-0.5c-0.1-0.2-0.1-0.3-0.1-0.5c0.1-0.4,0.1-0.8-0.1-1.2c0.5,0.6,0.8,1.3,0.9,2.1L43.8,42.8z M42.4,38.3
	c0.1,0.1,0.2,0.2,0.3,0.3c-0.4,0.1-0.6-0.1-0.6-0.2s0.1-0.2,0.3,0.1L42.4,38.3z M42.1,40.9c0.2-0.6,0.2-1.3,0-1.9
	c0.6,0.9,0.8,1.9,0.7,2.9c-0.1,0.2,0,0.5,0.1,0.7l-0.6-0.5C42.1,42,42,41.8,42,41.6c0-0.2,0-0.4,0.1-0.5L42.1,40.9z M57.8,32.3
	c-0.2,1.2-0.1,2.3,0.2,3.4c0,0-1.8-1-2.1-4.9c0-0.5,0-1.9,0.5-2c0.2,0,0.3,0.2,0.3,0.6l0.2,2.8c0,0.1,0,0.2,0.1,0.2l0,0
	c0.1,0,0.1-0.1,0.1-0.2v-2.2c0-0.4,0.1-0.5,0.3-0.4C57.7,29.9,57.8,31.7,57.8,32.3z M45.5,27.9l-0.2-0.7c-0.1-0.3,0-0.4,0.1-0.4
	c0.3,0,0.7,0.7,0.7,0.9c0.2,0.6,0.1,1.2-0.2,1.8c-0.6-0.2-1-0.6-1.2-1.1c-0.1-0.2-0.2-0.9,0-1.2c0.1-0.1,0.2-0.1,0.3,0.2l0.3,0.6
	c0,0.1,0.1,0.1,0.1,0.1S45.5,27.9,45.5,27.9z M46.3,27.3c-0.1-0.3-0.3-1.1-0.1-1.4c0.1-0.1,0.2-0.1,0.4,0.2l0.5,1
	c0,0.1,0.1,0.2,0.2,0.1s0-0.1,0-0.2l-0.4-1.1c-0.1-0.4-0.1-0.5,0.1-0.5c0.4,0,0.8,0.8,0.9,1c0.3,0.7,0.3,1.5-0.1,2.2
	C47.2,28.5,46.6,28,46.3,27.3L46.3,27.3z M48.8,26.1l-1.2-3.3c-0.1-0.4-0.1-0.5,0.1-0.4c0.3,0.1,1,1.6,1.2,2.2
	c0.5,1.1,0.6,2.2,0.5,3.4c-0.8-0.8-1.5-1.8-1.8-2.9c-0.2-0.5-0.7-2-0.5-2.4c0.1-0.1,0.2-0.1,0.3,0.3l1.3,3.2c0,0.1,0.1,0.2,0.1,0.2
	S48.8,26.2,48.8,26.1L48.8,26.1z M50.6,25.1l-1.5-3c-0.2-0.4-0.1-0.5,0-0.4c0.4,0,1.1,1.2,1.3,1.7c0.6,1.1,1.1,3,0.9,3.5
	c-0.5-0.1-1.7-1.7-2.3-2.8c-0.2-0.4-0.8-1.7-0.6-2c0.1-0.1,0.2-0.1,0.4,0.2l1.6,2.9c0,0.1,0.1,0.2,0.2,0.1S50.6,25.2,50.6,25.1
	L50.6,25.1z M52.3,24l-1.5-2.8c-0.2-0.3-0.1-0.5,0-0.5c0.4,0,1.1,1,1.4,1.5c0.6,1.1,1,2.3,1,3.5l0,0c-1.1-0.6-1.9-1.5-2.5-2.6
	c-0.3-0.4-0.8-1.6-0.6-2c0.1-0.2,0.2-0.2,0.4,0.2l1.7,2.7c0,0.1,0.1,0.1,0.2,0.1l0,0C52.3,24.1,52.3,24.1,52.3,24L52.3,24z
	 M53.9,22.8l-1.4-2.7c-0.2-0.4-0.1-0.5,0.1-0.5c0.4,0,1.2,1.1,1.4,1.6c0.6,1,0.8,2.2,0.7,3.4l0,0c-1-0.6-1.9-1.5-2.4-2.5
	c-0.2-0.5-0.8-1.6-0.5-2c0.1-0.2,0.2-0.1,0.4,0.2l1.5,2.5c0,0.1,0.1,0.1,0.2,0.1S54,22.8,53.9,22.8L53.9,22.8z M54.8,27.8l-0.5-2
	c-0.1-0.3,0-0.4,0.2-0.4c0.4,0.1,0.9,1.1,1,1.5c0.3,1,0.3,2.7-0.1,3.1c-0.6-0.1-1.5-1.5-1.8-2.6c-0.1-0.4-0.2-1.3,0.1-1.6
	c0.1-0.1,0.3-0.1,0.4,0.2l0.6,1.8c0,0.1,0.1,0.2,0.1,0.1l0,0C54.8,27.9,54.8,27.8,54.8,27.8L54.8,27.8z M48.3,28.9
	c0.1-0.1,0.2-0.1,0.3,0.2l0.5,1.5c0,0,0,0.1,0.1,0.1s0-0.1,0-0.2l-0.4-1.6c-0.1-0.3,0-0.4,0.2-0.3c0.4,0.1,0.8,1,0.9,1.4
	c0.3,0.9,0.3,1.8-0.1,2.7l0,0c-0.5-0.1-1.3-1.3-1.6-2.2C48.1,30.1,47.9,29.1,48.3,28.9L48.3,28.9z M50,29.4c-0.1-0.3-0.3-1.1,0-1.4
	c0.1-0.1,0.2-0.1,0.3,0.2l0.6,1.6c0,0,0.1,0.1,0.1,0.1l0,0c0.1,0,0-0.1,0-0.2L50.5,28c-0.1-0.3,0-0.4,0.2-0.3c0.4,0,0.8,0.7,0.9,1.1
	c0.3,0.9,0.4,2.3,0.1,2.7C51.2,31.3,50.3,30.3,50,29.4L50,29.4z M51.7,28.4c-0.1-0.4-0.2-1.1,0-1.4c0.1-0.1,0.2-0.1,0.4,0.2l0.7,1.6
	c0,0.1,0.1,0.2,0.1,0.1l0,0c0.1,0,0-0.1,0-0.2L52.3,27c-0.1-0.3,0-0.4,0.2-0.4c0.4,0,0.8,0.7,0.9,1.1c0.4,1,0.5,2.5,0.1,3
	C53,30.6,52,29.3,51.7,28.4L51.7,28.4z M52.2,31.3c0.1-0.1,0.2-0.1,0.3,0.3l0.5,2.1c0,0.1,0,0.2,0.1,0.2s0-0.1,0-0.2l-0.4-2.1
	c-0.1-0.4,0-0.5,0.2-0.4c0.4,0.2,0.8,1.6,0.9,2.2c0.3,1.3,0.2,3-0.2,3.4c-0.5-0.3-1.3-1.7-1.6-3C52.1,33.1,51.9,31.6,52.2,31.3
	L52.2,31.3z M54.2,33c-0.1-0.5-0.3-2.1,0-2.4c0.1-0.1,0.2-0.1,0.3,0.3l0.5,2.1c0,0.1,0,0.2,0.1,0.2s0-0.1,0-0.2l-0.3-2.1
	c-0.1-0.4,0-0.5,0.2-0.4c0.4,0.2,0.8,1.6,0.9,2.2c0.2,1.3,0.1,3-0.3,3.4C55.1,35.8,54.3,34.3,54.2,33L54.2,33z M57.3,26.3
	c0.1,1,0.4,2.1,0.6,3.1c0,0-1.8-0.5-2.4-3.1c-0.1-0.5-0.2-1.6,0.1-1.9c0.1-0.1,0.3,0,0.3,0.4l0.4,1.8c0,0.1,0.1,0.2,0.2,0.1l0,0
	c0.1,0,0.1-0.1,0.1-0.2l-0.4-2.3c-0.1-0.4,0-0.5,0.2-0.4C57,24,57.3,25.7,57.3,26.3z M54.3,18.9c0.4,0,1.3,1.4,1.5,1.8
	c0.4,0.8,0.7,1.7,0.8,2.6c-1-0.3-1.9-1.1-2.4-2c-0.2-0.4-1-1.9-0.8-2.2c0.1-0.1,0.2-0.1,0.4,0.2l1.5,2.4c0,0.1,0.1,0.1,0.1,0.1
	s0-0.1,0-0.2l-1.2-2.2C54.2,19,54.3,18.9,54.3,18.9z M40.3,25.3c-0.1-0.2,0-0.3,0.3-0.3s0.3,0.1,0.4,0.1c0.2,0.1,0.5,0.1,0.7,0.1
	c1-0.1,2-0.6,2.7-1.4c0.4-0.4,0.6-1,0.2-1.5c0-0.1-0.1-0.2-0.1-0.2c-0.7-1.6-0.3-3.4,0.9-4.5c0.9-0.7,2-1.1,3.2-1
	c1,0.1,2,0.3,2.9,0.8c0.7,0.4,1.5,0.6,2.2,0.8c0.2,0,0.4,0,0.4,0.3s-0.3,0.3-0.7,0.3c-0.6,0-1.3-0.1-1.9-0.3
	c0.2,0.3,0.3,0.6,0.4,0.9c0,0.4-0.1,0.6-0.5,0.6c-0.4,0-0.7-0.2-1-0.4c-0.3-0.2-0.6-0.3-0.8-0.5c0.3,0.3,0.5,0.7,0.6,1.1
	c0.1,0.2,0,0.4-0.1,0.5c-0.1,0.1-0.3,0.2-0.5,0.1c-0.6-0.2-1.1-0.6-1.5-1.1c0.2,0.3,0.4,0.7,0.6,1.1c0.1,0.2,0.1,0.5-0.1,0.7
	c-0.2,0.2-0.5,0.2-0.7,0.1c-0.5-0.3-0.9-0.6-1.3-1c0.3,0.4,0.5,0.8,0.7,1.2c0.1,0.3,0,0.6-0.2,0.8c-0.1,0.1-0.3,0.1-0.4,0
	c-0.3,0-0.5-0.1-0.8-0.3c0.1,0.1,0.6,1,0.7,1.3c0.1,0.3,0.2,0.6,0.3,0.9c0,0.5-0.3,0.7-0.7,0.4l-0.4-0.2c0,0.3,0.1,0.7,0.1,1
	c0,0.5-0.3,0.6-0.7,0.5c-0.2-0.1-0.4-0.2-0.7-0.2c0,0.2,0,0.3,0,0.5c0,0.5-0.3,0.7-0.8,0.6c-0.2-0.1-0.5-0.2-0.7-0.3v0.3
	c0,0.4-0.3,0.7-0.7,0.7c-0.1,0-0.3,0-0.4-0.1c-0.1,0-0.4-0.3-0.6-0.4c-0.2,0.4-0.6,0.6-1,0.7C40.6,26.8,40.6,26,40.3,25.3z
	 M43.9,28.6l-0.1-0.7c0-0.3,0-0.4,0.2-0.3c0.3,0.1,0.6,0.7,0.6,1c0.1,0.6-0.1,1.2-0.4,1.7l0,0c-0.5-0.3-0.9-0.7-1-1.3
	c0-0.2-0.1-0.9,0.2-1.2c0.1-0.1,0.2-0.1,0.3,0.2L43.9,28.6c-0.1,0.1-0.1,0.2,0,0.2S43.9,28.7,43.9,28.6L43.9,28.6z M38.9,24.5
	l0.3,0.9c0,0.1,0.1,0.2,0.1,0.2l0,0c0.1,0,0-0.1,0-0.2l-0.2-1.2c-0.1-0.6-0.1-0.6,0-0.7c0.4-0.1,0.8,1.5,0.9,1.8
	c0.2,0.8,0.2,1.6-0.2,2.4c-0.7-0.4-1.2-1.1-1.3-1.9c-0.1-0.5-0.1-1.1,0.1-1.6C38.7,24,38.8,24.1,38.9,24.5L38.9,24.5z M38.3,22.3
	c0.2,0.6,0.1,1.3-0.3,1.8l0,0c-0.5-0.2-0.9-0.7-1.1-1.2c-0.1-0.2-0.1-0.7,0.2-0.9s0.2-0.1,0.3,0.2l0.2,0.6c0,0.1,0,0.2,0.1,0.1l0,0
	c0.1,0,0-0.1,0-0.2l-0.2-1c-0.1-0.3,0-0.4,0.1-0.3C38.1,21.3,38.3,22,38.3,22.3z M27.7,26.6c0.1,0,0.1-0.1,0.1-0.2l0.3-1.3
	c0.1-0.4,0.2-0.4,0.3-0.3c0.3,0.3,0.3,1.2,0.2,1.5c-0.1,0.8-0.5,1.5-1.2,2c-0.5-0.7-0.7-1.5-0.6-2.4c0-0.3,0.4-1.5,0.8-1.6
	c0.2-0.1,0.3,0,0.2,0.4l-0.2,1.7C27.6,26.5,27.6,26.6,27.7,26.6z M27.8,17.3l-0.2-0.9c-0.1-0.3,0-0.3,0.1-0.3c0.3,0.1,0.5,0.8,0.6,1
	c0.1,0.5,0.1,1-0.2,1.5c-0.5-0.2-0.8-0.5-1-1c-0.1-0.2-0.2-0.7,0-0.9s0.2-0.1,0.3,0.2l0.2,0.5c0,0.1,0,0.2,0.1,0.1l0,0
	C27.8,17.5,27.8,17.3,27.8,17.3z M29.2,16.8L29,15.8c-0.1-0.3,0-0.4,0.1-0.3c0.3,0.1,0.6,0.7,0.7,1c0.2,0.6,0.1,1.2-0.2,1.8
	c-0.6-0.3-1-0.8-1.2-1.4c-0.1-0.2-0.2-0.9,0-1.2c0.1-0.1,0.2-0.1,0.3,0.2l0.3,0.9c0,0.1,0,0.2,0.1,0.1S29.2,16.8,29.2,16.8
	L29.2,16.8z M30.1,20.1L29.9,19c0-0.4,0-0.4,0.2-0.4c0.3,0.1,0.6,0.9,0.7,1.2c0.1,0.7,0,1.4-0.4,2c-0.6-0.4-1-1-1.2-1.7
	c0-0.3-0.1-1.1,0.2-1.3c0.1-0.1,0.2-0.1,0.3,0.3l0.3,1.1c0,0.1,0,0.2,0.1,0.2S30.1,20.1,30.1,20.1L30.1,20.1z M35.1,20.3
	c0.1,0,0.1-0.1,0.1-0.2l0.3-1.1c0.1-0.3,0.2-0.4,0.3-0.3c0.3,0.3,0.2,1.1,0.2,1.3c-0.1,0.7-0.5,1.3-1.2,1.7c-0.4-0.6-0.6-1.3-0.4-2
	c0.1-0.3,0.3-1,0.7-1.2c0.1,0,0.2,0,0.2,0.4l-0.1,1.1C35.1,20.1,35.1,20.2,35.1,20.3L35.1,20.3z M36,16.9c0.1,0,0.1-0.1,0.1-0.1
	l0.3-0.9c0.1-0.3,0.2-0.3,0.3-0.2c0.2,0.3,0.1,0.9,0,1.2c-0.2,0.6-0.6,1.1-1.2,1.4c-0.3-0.6-0.4-1.2-0.2-1.9c0.1-0.2,0.3-0.9,0.7-1
	c0.1,0,0.2,0,0.1,0.3L36,16.7C36,16.8,35.9,16.9,36,16.9L36,16.9z M37.4,17.5L37.4,17.5c0.1,0,0.1-0.1,0.1-0.1l0.2-0.5
	c0.1-0.3,0.2-0.3,0.3-0.2s0.1,0.7,0.1,0.9c-0.2,0.5-0.5,0.8-1,1c-0.2-0.4-0.3-1-0.2-1.5c0-0.2,0.3-0.9,0.6-1c0.1,0,0.2,0,0.1,0.3
	l-0.2,0.9C37.3,17.3,37.3,17.5,37.4,17.5L37.4,17.5z M35.3,27.1l-0.1-1.8c0-0.4,0.1-0.5,0.3-0.5c0.4,0.2,0.7,1.1,0.7,1.4
	c0.1,0.9-0.2,1.8-0.8,2.5c-0.7-0.5-1.2-1.3-1.3-2.1c0-0.3,0-1.3,0.4-1.6c0.2-0.1,0.3-0.1,0.4,0.3l0.3,1.8c0,0.1,0,0.2,0.1,0.2l0,0
	C35.3,27.3,35.3,27.1,35.3,27.1L35.3,27.1z M35,23.2c0-0.3-0.1-1.1,0.3-1.4c0.1-0.1,0.2-0.1,0.3,0.3l0.3,1.3c0,0.1,0,0.2,0.1,0.2
	s0.1-0.1,0-0.2L35.9,22c0-0.4,0.1-0.4,0.2-0.4c0.4,0.2,0.6,0.9,0.7,1.2c0.1,0.7-0.1,1.5-0.6,2.1C35.5,24.5,35.1,23.9,35,23.2
	L35,23.2z M36.3,19.9c0-0.2,0-0.8,0.3-1c0.1-0.1,0.2,0,0.2,0.2L37,20c0,0,0,0.1,0.1,0.1s0-0.1,0.1-0.1v-0.8c0-0.3,0.1-0.3,0.2-0.3
	c0.3,0.1,0.4,0.7,0.5,0.9c0,0.6-0.2,1.2-0.6,1.5C36.7,21,36.4,20.5,36.3,19.9z M34.8,23.3c0,0.7-0.3,1.3-0.8,1.7l0,0
	c-0.5-0.3-0.8-0.9-0.8-1.5c0-0.2,0.1-0.8,0.5-0.9c0.1,0,0.2,0,0.3,0.3v0.7c0,0.1,0,0.2,0.1,0.2l0,0c0.1,0,0.1-0.1,0.1-0.2l0.1-1.1
	c0-0.3,0.1-0.4,0.3-0.3C34.7,22.4,34.8,23.1,34.8,23.3z M34.1,30.7c0,0.1,0,0.2,0.1,0.2s0.1-0.1,0.1-0.2v-1.6c0-0.4,0.1-0.5,0.3-0.4
	c0.5,0.2,0.7,1.2,0.7,1.5c0,0.9-0.3,1.8-1,2.4l0,0c-0.7-0.5-1.2-1.3-1.3-2.2c0-0.3,0-1.3,0.5-1.6c0.2-0.1,0.3,0,0.4,0.4L34.1,30.7z
	 M33.2,31.9c0.6,0.3,0.7,1.3,0.7,1.7c0,1-0.5,1.9-1.4,2.5l0,0c-0.8-0.6-1.3-1.5-1.4-2.5c0-0.3,0.2-1.4,0.7-1.7
	c0.2-0.1,0.4,0,0.4,0.4l0.1,1.8c0,0.1,0,0.2,0.1,0.2l0,0c0.1,0,0.1-0.1,0.1-0.2l0.1-1.8C32.8,31.9,33,31.8,33.2,31.9L33.2,31.9z
	 M32.1,30.3c-0.1,0.9-0.5,1.7-1.3,2.2c-0.7-0.6-1-1.5-1-2.4c0-0.3,0.2-1.3,0.7-1.5c0.2-0.1,0.3,0,0.3,0.4v1.6c0,0.1,0,0.2,0.1,0.2
	s0.1-0.1,0.1-0.2l0.2-1.6c0.1-0.4,0.2-0.5,0.4-0.4C32.1,29,32.2,29.9,32.1,30.3L32.1,30.3z M29.2,23.5c0.1,0,0.1-0.1,0.1-0.2
	l0.3-1.2c0.1-0.4,0.2-0.4,0.3-0.3c0.3,0.3,0.3,1.1,0.3,1.4c-0.1,0.7-0.6,1.4-1.2,1.8c-0.5-0.6-0.7-1.3-0.6-2.1
	c0-0.3,0.3-1.1,0.7-1.2c0.2-0.1,0.3,0,0.2,0.4l-0.1,1.3C29.1,23.3,29.1,23.5,29.2,23.5L29.2,23.5z M29,26.2c0-0.3,0.3-1.3,0.7-1.4
	c0.2-0.1,0.3,0,0.3,0.5L29.9,27c0,0.1,0,0.2,0.1,0.2s0.1-0.1,0.1-0.2l0.3-1.7c0.1-0.4,0.2-0.5,0.3-0.3c0.4,0.3,0.4,1.3,0.4,1.6
	c-0.1,0.9-0.6,1.6-1.3,2.1C29.2,28,28.9,27.1,29,26.2L29,26.2z M31.2,25.1c-0.5-0.4-0.9-1.1-0.9-1.7c0-0.2,0.1-1,0.4-1.2
	c0.1-0.1,0.2,0,0.3,0.3l0.1,1.1c0,0.1,0,0.2,0.1,0.2l0,0c0.1,0,0.1-0.1,0.1-0.2V23c0-0.3,0.1-0.3,0.3-0.3c0.3,0.1,0.5,0.6,0.5,0.9
	C32,24.2,31.7,24.7,31.2,25.1L31.2,25.1z M27.5,19.8c0-0.2,0.2-0.8,0.5-0.9c0.1,0,0.2,0,0.2,0.3V20c0,0.1,0,0.1,0,0.1
	s0.1-0.1,0.1-0.1l0.2-0.8c0-0.3,0.1-0.3,0.2-0.2c0.3,0.2,0.3,0.8,0.3,1c-0.1,0.6-0.4,1.1-0.9,1.5C27.6,20.9,27.4,20.4,27.5,19.8
	L27.5,19.8z M27.4,29.8c0-0.3,0.3-1.3,0.7-1.4c0.2-0.1,0.3,0,0.3,0.5l0,1.3c0,0.1,0,0.2,0.1,0.2s0.1-0.1,0.1-0.2l0.3-1.3
	c0.1-0.4,0.2-0.5,0.4-0.3c0.4,0.3,0.4,1.3,0.4,1.6c-0.1,0.8-0.6,1.5-1.3,1.8C27.6,31.4,27.3,30.6,27.4,29.8L27.4,29.8z M29,31.9
	c0.2-0.1,0.3,0,0.4,0.4l0.1,1.6c0,0.1,0,0.2,0.1,0.2s0.1-0.1,0.1-0.2l0.1-1.2c0-0.5,0.2-0.5,0.4-0.4c0.5,0.3,0.6,1.1,0.6,1.4
	c0,0.9-0.4,1.8-1.2,2.3c-0.8-0.6-1.3-1.5-1.3-2.4C28.3,33.2,28.4,32.2,29,31.9L29,31.9z M30.3,40.1l-0.4-0.9
	c-0.2-0.3-0.1-0.4,0.1-0.4c0.4,0,0.8,0.5,0.9,0.7c0.3,0.6,0.4,1.3,0.2,2c-0.6-0.1-1.2-0.4-1.5-1c-0.1-0.2-0.5-1-0.3-1.3
	c0.1-0.1,0.2-0.1,0.4,0.2l0.6,0.9c0,0.1,0.1,0.2,0.2,0.1S30.4,40.2,30.3,40.1z M30.1,37.1c0-0.3,0-1.2,0.3-1.4
	c0.1-0.1,0.3-0.1,0.3,0.3L31,37c0,0.1,0,0.2,0.1,0.2l0,0c0.1,0,0.1-0.1,0.1-0.2l-0.1-1.1c0-0.4,0.1-0.4,0.2-0.4
	c0.4,0.1,0.7,1,0.7,1.3c0.1,0.7-0.2,1.4-0.7,1.8C30.7,38.3,30.2,37.8,30.1,37.1L30.1,37.1z M32.1,38.5c0.2-0.1,0.3,0,0.3,0.3
	l0.1,1.1c0,0.1,0,0.2,0.1,0.2s0.1-0.1,0.1-0.2l0.1-1.1c0-0.4,0.2-0.4,0.3-0.3c0.4,0.2,0.5,1.1,0.5,1.4c0,0.9-0.4,1.7-1,2.3
	c-0.6-0.6-1-1.4-1-2.3C31.5,39.6,31.6,38.7,32.1,38.5L32.1,38.5z M33.1,36.8c0-0.3,0.3-1.1,0.7-1.3c0.2-0.1,0.3,0,0.3,0.4L34,37
	c0,0.1,0,0.2,0.1,0.2s0.1-0.1,0.1-0.2l0.3-1.1c0.1-0.3,0.2-0.4,0.3-0.3c0.4,0.3,0.3,1.2,0.3,1.4c-0.1,0.7-0.6,1.3-1.2,1.5
	C33.3,38.2,33,37.5,33.1,36.8L33.1,36.8z M34.2,39.4c0.1-0.2,0.5-0.7,0.9-0.7c0.2,0,0.2,0.1,0.1,0.4l-0.4,0.9c0,0.1-0.1,0.2,0,0.2
	s0.1-0.1,0.2-0.1l0.6-0.9c0.2-0.3,0.3-0.3,0.4-0.2c0.2,0.3-0.1,1.1-0.3,1.3c-0.3,0.6-0.9,0.9-1.6,1C33.9,40.8,33.9,40,34.2,39.4
	L34.2,39.4z M34.3,33.7c0-0.3,0.1-1.1,0.6-1.4c0.2-0.1,0.4,0,0.4,0.4l0.1,1.2c0,0.1,0,0.2,0.1,0.2s0.1-0.1,0.1-0.2l0.2-1.6
	c0-0.5,0.2-0.5,0.4-0.4c0.5,0.3,0.7,1.3,0.7,1.6c0,1-0.5,1.9-1.3,2.4C34.8,35.5,34.4,34.7,34.3,33.7z M35.6,30.1
	c0-0.3,0-1.3,0.4-1.6c0.2-0.1,0.3-0.1,0.4,0.3l0.3,1.3c0,0.1,0,0.2,0.1,0.2s0.1-0.1,0.1-0.2l-0.1-1.3c0-0.4,0.1-0.5,0.3-0.5
	c0.5,0.2,0.7,1.1,0.7,1.4c0.1,0.8-0.2,1.7-0.9,2.2l0,0C36.2,31.6,35.7,30.9,35.6,30.1L35.6,30.1z M37.7,28.3c-0.7-0.5-1.1-1.2-1.2-2
	c0-0.3-0.1-1.2,0.2-1.5c0.1-0.1,0.2-0.1,0.3,0.3l0.3,1.4c0,0.1,0,0.2,0.1,0.2s0.1-0.1,0-0.2l-0.1-1.7c0-0.4,0.1-0.5,0.2-0.4
	c0.4,0.2,0.7,1.3,0.8,1.6C38.4,26.7,38.2,27.6,37.7,28.3L37.7,28.3z M38.4,16.7c-0.3-0.2-0.5-0.5-0.6-0.9c0-0.2,0-0.5,0.2-0.6
	s0.1,0,0.2,0.2l0.1,0.3c0,0,0,0.1,0.1,0.1l0,0c0,0,0-0.1,0-0.1v-0.6c0-0.2,0-0.3,0.1-0.2s0.3,0.5,0.3,0.7
	C38.8,16,38.7,16.4,38.4,16.7L38.4,16.7z M39.1,15.6c-0.3-0.4-0.4-0.9-0.5-1.3c-0.5,0.6-1.3,0.9-2.1,0.9c0-0.8,0.4-1.5,1-2
	c-0.5,0-1-0.3-1.4-0.6c0.3-0.1,0.7-0.2,1-0.4c0.1,0,0.1-0.1,0.2-0.1s0.1,0.2,0,0.3h-0.2c-0.1,0-0.1,0.1-0.1,0.2s0.1,0.1,0.2,0.1h0.1
	c0,0,0.1,0,0.1,0c0,0,0.1,0.1,0.1,0.1c0.1,0.2,0.2,0.4,0.3,0.5c0,0,0,0.1,0,0.1c0,0.1,0,0.1-0.1,0.2l-0.5,0.8c-0.1,0,0,0.1,0,0.1
	s0.1,0,0.1,0l0.8-0.5c0,0,0.1-0.1,0.2-0.1c0.1,0,0.1,0,0.2,0.1c0.1,0.1,0.3,0.2,0.5,0.3c0.1,0,0.1,0.1,0.2,0.1c0,0,0,0.1,0,0.2v0.1
	c0,0.1,0,0.2,0.1,0.2c0,0,0,0,0,0c0.1,0,0.2,0,0.2-0.1c0,0,0,0,0,0v-0.1c0-0.1,0.1-0.1,0.1-0.1c0.1,0,0.2,0,0.2,0
	c0.2,0,0.4,0.1,0.6,0.1C39.9,14.6,39.4,15,39.1,15.6L39.1,15.6z M39.7,14.1c-1.1-0.2-1.9-1-2.2-2.1c0.4,0.5,1.1,0.7,1.7,0.3
	c0.6-0.3,0.9-0.7,1.3-0.4c0.2,0.2,0.4,0.4,0.7,0.5c0.3,0.1,0.6,0,0.8-0.2c0.2-0.2,0.4-0.5,0.7-0.3s0,0.9-0.6,1.5
	C41.5,14,40.7,14.2,39.7,14.1L39.7,14.1z M41.2,11.8c0-0.2,0.1-0.4,0.4-0.4s0.4,0.1,0.4,0.4c0,0.2-0.1,0.4-0.4,0.4c0,0,0,0,0,0
	C41.4,12.2,41.3,12,41.2,11.8L41.2,11.8z M43.7,14.2c-0.4-0.1-0.9,0-1.3,0.1c-0.4,0.2-0.9,0.2-1.3,0.1c0.5-0.1,0.9-0.2,1.4-0.4
	C43.4,13.8,43.7,14.2,43.7,14.2L43.7,14.2z M44.9,13.7c0.7,0.3,1.5,0.4,2.2,0.2c0.3-0.2,0.5-0.5,0.5-0.9c0.1,0.5-0.2,1.1-0.7,1.2
	c-0.9,0.2-1.9,0-2.8-0.5c-0.3-0.2-0.7-0.2-1-0.1c0.1-0.1,0.3-0.2,0.4-0.3C44,13.1,44.2,13.3,44.9,13.7L44.9,13.7z M43.7,11.3
	c0.1,0.1,0.1,0.3,0.2,0.3s0.1-0.1,0.2-0.2s1.9,0.1,2.1,1.5c-0.5-0.3-1-0.3-1.6-0.3c-0.8,0.2-1.5,0.5-2.2,0.9
	c0.5-0.4,0.9-1.1,0.9-1.7C43.3,11.4,43.5,11.3,43.7,11.3z M34.6,11.1c1.1,0.3,2.3,0.3,3.4-0.1c2.3-0.7,2.9-0.8,3.8-0.5
	s1.4,0.8,1.2,1.1s-0.6,0.1-1-0.1c-0.3-0.1-0.7-0.2-1-0.3c-0.5,0-1.1,0.2-1.4,0.5c-0.7,0.5-1.4,0.7-1.9-0.1
	C37.8,11.7,35.6,12.2,34.6,11.1L34.6,11.1z M34.7,12.1c0.4,0.1,0.7,0,1.1-0.1c0.2-0.1,0.3,0,0.3,0.1S35.3,12.5,34.7,12.1L34.7,12.1z
	 M34.7,13.1c0.3,0,0.6,0,0.8-0.1c0.2-0.1,0.3,0,0.3,0.1S35.2,13.4,34.7,13.1L34.7,13.1z M35.6,13.5c0.1-0.2,0.6-0.6,0.9-0.6
	c0.1,0,0.2,0.1,0,0.3L35.9,14c0,0-0.1,0.1-0.1,0.2s0.1,0,0.2-0.1l0.5-0.5c0.2-0.2,0.3-0.2,0.3-0.1s-0.3,0.8-0.5,1
	c-0.3,0.3-0.8,0.5-1.3,0.4C35.1,14.4,35.2,13.9,35.6,13.5L35.6,13.5z M33.9,16.1c0.1-0.2,0.3-0.7,0.6-0.7c0.1,0,0.2,0,0.1,0.3
	l-0.2,0.5c0,0.1-0.1,0.2,0,0.2s0.1-0.1,0.1-0.1l0.4-0.9c0.1-0.3,0.2-0.3,0.3-0.2c0.2,0.3,0,1-0.1,1.2c-0.3,0.7-0.7,1.3-1.3,1.7
	C33.7,17.4,33.7,16.7,33.9,16.1z M33.1,19.1c0-0.2,0.2-0.7,0.5-0.8c0.1,0,0.2,0,0.1,0.3l-0.1,0.7c0,0,0,0.1,0,0.1s0.1-0.1,0.1-0.1
	l0.2-0.7c0.1-0.2,0.2-0.3,0.2-0.2s0.2,0.7,0.1,0.9c-0.1,0.5-0.4,0.9-0.9,1.1C33.1,20.1,33,19.6,33.1,19.1L33.1,19.1z M33,21.5
	c0.1-0.3,0.2-0.5,0.4-0.7c0.3-0.1,0.6,0,0.7,0.2c0.1,0.2,0.1,0.4-0.1,0.5c-0.3,0.5-0.9,0.4-1.2,1.2C32.8,22.4,32.9,22,33,21.5
	L33,21.5z M32.5,27.2c0,0.1,0,0.3,0.1,0.3s0.1-0.2,0.1-0.3l0.1-1.8c0-0.5,0.2-0.6,0.4-0.5c0.5,0.3,0.6,1.4,0.6,1.8
	c0,1-0.5,2-1.2,2.6c-0.8-0.7-1.2-1.6-1.2-2.7c0-0.4,0.2-1.5,0.6-1.8c0.2-0.1,0.3,0,0.4,0.5L32.5,27.2z M32.3,22.9
	c-0.2-0.8-0.8-0.7-1.2-1.2C31,21.5,31,21.1,31.2,21c0.2-0.1,0.4-0.1,0.5-0.1c0.2,0.2,0.4,0.4,0.4,0.7C32.3,22,32.4,22.4,32.3,22.9z
	 M31.6,19.3l-0.1-0.7c0-0.2,0-0.3,0.1-0.3c0.3,0.1,0.5,0.6,0.5,0.8c0.1,0.5,0,1-0.3,1.4c-0.5-0.2-0.8-0.7-0.9-1.2
	c0-0.2-0.1-0.7,0.1-0.9s0.2,0,0.2,0.2l0.2,0.7c0,0,0,0.1,0.1,0.1l0,0C31.6,19.5,31.6,19.4,31.6,19.3z M30.7,16.2l-0.2-0.5
	c-0.1-0.3,0-0.3,0.1-0.3c0.3,0,0.5,0.5,0.6,0.7c0.3,0.6,0.3,1.3,0.1,2c-0.6-0.4-1.1-1-1.3-1.7c-0.1-0.2-0.3-0.9-0.1-1.2
	c0.1-0.1,0.2-0.1,0.3,0.2l0.4,0.9c0,0.1,0.1,0.1,0.1,0.1S30.7,16.3,30.7,16.2L30.7,16.2z M30.1,14.9c-0.5,0.1-0.9-0.1-1.3-0.4
	c-0.2-0.2-0.6-0.7-0.5-1s0.2-0.1,0.3,0.1l0.5,0.5c0,0,0.1,0.1,0.2,0.1s0-0.1,0-0.2l-0.5-0.6c-0.2-0.2-0.2-0.3,0-0.3
	c0.3-0.1,0.8,0.4,0.9,0.6C30,13.9,30.1,14.4,30.1,14.9L30.1,14.9z M30.5,13.1c-0.5,0.3-1.1,0.1-1.1,0s0.1-0.2,0.3-0.1
	C29.9,13.1,30.2,13.2,30.5,13.1L30.5,13.1z M30.5,12.2c-0.6,0.4-1.4,0.2-1.4,0s0.1-0.2,0.3-0.1C29.8,12.2,30.2,12.2,30.5,12.2
	L30.5,12.2z M23.3,10.5c0.9-0.2,1.6-0.1,3.8,0.5c1.1,0.4,2.3,0.5,3.4,0.1c-1,1-3.2,0.5-3.2,0.5c-0.5,0.7-1.2,0.6-1.9,0.1
	c-0.4-0.4-0.9-0.6-1.5-0.5c-0.3,0.1-0.7,0.2-1,0.3c-0.4,0.2-0.8,0.3-1,0.1S22.3,10.8,23.3,10.5z M23.9,11.8c0,0.2-0.1,0.4-0.4,0.4
	c-0.2,0-0.4-0.1-0.4-0.4c0-0.2,0.1-0.4,0.4-0.4c0,0,0,0,0,0C23.7,11.5,23.9,11.6,23.9,11.8C23.9,11.8,23.9,11.8,23.9,11.8L23.9,11.8
	z M20.6,12.7c-0.5-0.1-1.1,0-1.6,0.3c0.2-1.3,1.8-1.5,2.1-1.5s0.1,0.2,0.2,0.2s0.1-0.2,0.2-0.3s0.4,0,0.4,0.5c0,0.7,0.4,1.3,0.9,1.7
	C22.1,13.2,21.4,12.9,20.6,12.7L20.6,12.7z M21.1,13.7c-0.8,0.5-1.8,0.7-2.8,0.5c-0.5-0.1-0.9-0.7-0.7-1.2c0,0.4,0.2,0.7,0.5,0.9
	c0.7,0.2,1.5,0.2,2.2-0.2c0.7-0.3,0.9-0.5,1.3-0.4c0.2,0.1,0.3,0.1,0.5,0.3C21.7,13.5,21.4,13.5,21.1,13.7L21.1,13.7z M22.8,14.3
	c-0.4-0.2-0.9-0.2-1.3-0.1c0,0,0.3-0.5,1.2-0.2c0.4,0.2,0.9,0.3,1.4,0.4C23.7,14.5,23.2,14.5,22.8,14.3L22.8,14.3z M22.9,13.3
	c-0.7-0.6-1-1.3-0.6-1.5s0.5,0.1,0.7,0.3c0.2,0.2,0.6,0.3,0.8,0.2c0.3-0.1,0.5-0.3,0.7-0.5c0.4-0.4,0.7,0,1.3,0.4
	c0.6,0.4,1.3,0.2,1.7-0.3c-0.3,1.5-1.8,2.4-3.3,2.1C23.7,13.9,23.3,13.7,22.9,13.3z M26,15.6c-0.2-0.6-0.7-1-1.2-1.1
	c0.2,0,0.4,0,0.6-0.1c0.1,0,0.2,0,0.2,0c0.1,0,0.1,0.1,0.1,0.1v0.1c0,0.1,0.1,0.1,0.2,0.1c0,0,0,0,0,0c0.1,0,0.1-0.1,0.1-0.2
	c0,0,0,0,0,0v-0.1c0,0,0-0.1,0-0.2c0-0.1,0.1-0.1,0.2-0.1c0.2-0.1,0.3-0.2,0.5-0.3c0,0,0.1-0.1,0.2-0.1c0.1,0,0.1,0,0.2,0.1l0.8,0.5
	c0.1,0,0.1,0,0.1,0s0,0,0-0.1l-0.6-0.7c0,0-0.1-0.1-0.1-0.2c0,0,0-0.1,0-0.1c0.1-0.2,0.2-0.3,0.3-0.5c0-0.1,0.1-0.1,0.1-0.1
	c0,0,0.1,0,0.1,0h0.1c0.1,0,0.2,0,0.2-0.1s0-0.2-0.1-0.2h-0.2c-0.1,0-0.1-0.2,0-0.3s0.2,0,0.2,0.1c0.3,0.2,0.7,0.3,1,0.4
	c-0.4,0.3-0.9,0.6-1.4,0.6c0.6,0.5,1,1.2,1,2c-0.8,0-1.6-0.3-2.1-0.9C26.4,14.7,26.3,15.2,26,15.6L26,15.6z M26.7,16.7
	c-0.3-0.3-0.4-0.7-0.4-1.1c0-0.2,0.1-0.6,0.3-0.7s0.1,0,0.1,0.2v0.6v0.1l0,0c0,0,0-0.1,0-0.1l0.1-0.3c0-0.2,0.1-0.2,0.2-0.2
	s0.2,0.4,0.2,0.6C27.2,16.2,27,16.5,26.7,16.7L26.7,16.7z M26.8,22.3c0.1-0.2,0.3-0.9,0.6-1c0.1,0,0.2,0,0.1,0.3l-0.2,1
	c0,0.1,0,0.2,0,0.2l0,0c0.1,0,0.1-0.1,0.1-0.1l0.2-0.6c0.1-0.3,0.2-0.3,0.3-0.2s0.2,0.7,0.2,0.9c-0.1,0.6-0.5,1-1.1,1.2
	C26.7,23.5,26.7,22.8,26.8,22.3L26.8,22.3z M25.1,25.3c0.1-0.3,0.5-1.9,0.9-1.8c0.1,0,0.2,0.1,0,0.7l-0.2,1.3c0,0.1,0,0.2,0,0.2
	s0.1-0.1,0.1-0.2l0.3-0.9c0.1-0.4,0.2-0.4,0.3-0.3c0.2,0.5,0.2,1.1,0.1,1.6c-0.2,0.8-0.6,1.5-1.3,1.9l0,0C25,27,24.9,26.1,25.1,25.3
	L25.1,25.3z M11.4,17.9c0.8-0.2,1.5-0.4,2.2-0.8c0.9-0.4,1.9-0.7,2.9-0.8c1.1-0.1,2.3,0.3,3.2,1c1.3,1.1,1.6,3,0.9,4.5
	c0,0.1-0.1,0.2-0.1,0.2c-0.3,0.5-0.2,1.1,0.2,1.5c0.7,0.8,1.7,1.3,2.7,1.4c0.2,0,0.5,0,0.7-0.1c0.1,0,0.3-0.1,0.4-0.1
	s0.3,0.1,0.3,0.3c-0.2,0.8-0.2,1.6,0.1,2.3c-0.4-0.1-0.8-0.3-1-0.7c-0.1,0.1-0.5,0.3-0.6,0.4c-0.3,0.2-0.7,0.2-0.9-0.1
	c-0.1-0.1-0.1-0.3-0.1-0.4v-0.3c-0.2,0.1-0.5,0.3-0.7,0.3c-0.5,0.2-0.8-0.1-0.8-0.6c0-0.2,0-0.3,0-0.5c-0.2,0.1-0.5,0.2-0.7,0.2
	c-0.5,0.1-0.7,0-0.7-0.5c0-0.3,0-0.7,0.1-1l-0.4,0.2c-0.5,0.2-0.8,0.1-0.7-0.4c0-0.3,0.1-0.6,0.3-0.9c0.1-0.3,0.7-1.2,0.7-1.3
	c-0.2,0.1-0.5,0.2-0.8,0.3c-0.3,0.1-0.6-0.1-0.7-0.4c0-0.1,0-0.3,0-0.4c0.2-0.4,0.4-0.8,0.7-1.1c-0.4,0.4-0.8,0.7-1.3,1
	c-0.2,0.1-0.5,0-0.7-0.1c-0.1-0.2-0.2-0.5-0.1-0.7c0.1-0.4,0.3-0.7,0.6-1.1c-0.4,0.5-0.9,0.9-1.5,1.1c-0.2,0-0.4,0-0.5-0.1
	C15,20.3,15,20.1,15,19.9c0.2-0.4,0.4-0.8,0.6-1.1c-0.3,0.2-0.5,0.4-0.8,0.5c-0.3,0.2-0.7,0.4-1.1,0.4c-0.4,0-0.5-0.3-0.5-0.6
	c0.1-0.3,0.2-0.6,0.4-0.9c-0.6,0.2-1.3,0.3-1.9,0.3c-0.3,0-0.7-0.1-0.7-0.3S11.3,18,11.4,17.9L11.4,17.9z M21.3,28.7
	c0.1,0,0.1-0.1,0.1-0.1l0.2-0.7c0.1-0.3,0.2-0.3,0.3-0.2c0.3,0.3,0.2,0.9,0.2,1.2c-0.1,0.6-0.5,1.1-1,1.3c-0.4-0.5-0.6-1.1-0.5-1.7
	c0-0.2,0.3-0.9,0.6-1c0.1,0,0.2,0,0.2,0.3l-0.1,0.7C21.3,28.7,21.2,28.8,21.3,28.7L21.3,28.7z M11.3,22.9c0.1,0,0.1,0,0.2-0.1
	l1.4-2.4c0.2-0.3,0.3-0.3,0.4-0.2c0.2,0.4-0.3,1.6-0.5,2c-0.5,1.1-1.4,2-2.4,2.5l0,0c-0.1-1.2,0.2-2.4,0.7-3.4
	c0.3-0.5,1-1.6,1.4-1.6c0.2,0,0.2,0.1,0.1,0.5l-1.4,2.7C11.2,22.8,11.2,22.9,11.3,22.9L11.3,22.9z M13,24.1c0.1,0,0.1,0,0.2-0.1
	l1.6-2.6c0.2-0.3,0.3-0.3,0.4-0.2c0.2,0.4-0.4,1.5-0.6,2c-0.6,1.1-1.4,2-2.5,2.6l0,0c0-1.2,0.4-2.5,1-3.5c0.3-0.5,1-1.5,1.4-1.5
	c0.2,0,0.2,0.1,0,0.5L12.9,24C12.9,24.1,12.8,24.1,13,24.1L13,24.1z M14.7,25.2c0.1,0,0.1-0.1,0.2-0.1l1.5-2.8
	c0.2-0.3,0.3-0.3,0.4-0.2c0.2,0.3-0.4,1.6-0.6,2c-0.6,1.1-1.8,2.7-2.3,2.8c-0.2-0.5,0.3-2.4,0.9-3.5c0.3-0.5,0.9-1.6,1.3-1.7
	c0.2,0,0.2,0.1,0,0.4l-1.5,3C14.6,25.2,14.6,25.3,14.7,25.2L14.7,25.2z M16.3,26.3c0.1,0,0.1-0.1,0.1-0.2l1.3-3.2
	c0.2-0.4,0.3-0.4,0.3-0.3c0,0.8-0.2,1.6-0.5,2.4c-0.3,1.1-1,2.1-1.8,2.9l0,0c-0.1-1.1,0-2.3,0.5-3.4c0.2-0.5,0.9-2,1.2-2.2
	c0.1,0,0.2,0,0.1,0.4l-1.2,3.3C16.3,26.2,16.3,26.3,16.3,26.3z M10.8,25.3c0.2,0,0.3,0.1,0.2,0.4l-0.5,2c0,0.1,0,0.2,0,0.2l0,0
	c0.1,0,0.1-0.1,0.1-0.1l0.6-1.8c0.1-0.3,0.2-0.3,0.4-0.2c0.3,0.3,0.2,1.2,0.1,1.6c-0.3,1.1-1.2,2.4-1.8,2.6l0,0
	c-0.4-0.4-0.4-2.1-0.1-3.1C9.9,26.4,10.3,25.4,10.8,25.3z M10.2,30.4c0.2-0.1,0.2,0,0.2,0.4L10.1,33c0,0.1,0,0.2,0,0.2
	s0.1-0.1,0.1-0.2l0.5-2.1c0.1-0.4,0.2-0.5,0.3-0.3c0.3,0.3,0.1,1.9,0,2.4c-0.3,1.3-1,2.8-1.5,3.1l0,0C9.1,35.7,9,34,9.2,32.7
	C9.4,32.1,9.8,30.6,10.2,30.4z M11.2,33.3c0.1-0.6,0.5-2,0.9-2.2c0.2-0.1,0.2,0,0.2,0.4l-0.4,2.1c0,0.1,0,0.2,0,0.2s0.1-0.1,0.1-0.2
	l0.5-2.1c0.1-0.4,0.2-0.4,0.3-0.3c0.3,0.3,0.1,1.8,0,2.4c-0.3,1.3-1,2.8-1.6,3C11,36.2,10.9,34.5,11.2,33.3L11.2,33.3z M11.6,30.7
	c-0.4-0.4-0.2-2,0.1-3c0.2-0.4,0.5-1.1,0.9-1.1c0.2,0,0.3,0.1,0.2,0.4l-0.5,1.8c0,0.1,0,0.2,0,0.2l0,0c0.1,0,0.1-0.1,0.1-0.1
	l0.7-1.6c0.1-0.3,0.3-0.3,0.4-0.2c0.3,0.3,0.2,1,0,1.4C13.2,29.3,12.2,30.6,11.6,30.7L11.6,30.7z M13.6,28.7
	c0.1-0.4,0.5-1.1,0.9-1.1c0.2,0,0.2,0.1,0.2,0.3l-0.5,1.7c0,0.1,0,0.1,0,0.2l0,0c0.1,0,0.1-0.1,0.1-0.1l0.6-1.6
	c0.1-0.3,0.2-0.3,0.3-0.2c0.3,0.3,0.1,1,0,1.4c-0.3,0.9-1.2,2-1.7,2.1C13.1,31.1,13.3,29.6,13.6,28.7L13.6,28.7z M15.3,29.9
	c0.1-0.4,0.5-1.4,0.9-1.4c0.2,0,0.2,0,0.2,0.3l-0.4,1.6c0,0.1,0,0.1,0,0.2s0.1-0.1,0.1-0.1l0.5-1.5c0.1-0.3,0.2-0.3,0.3-0.2
	c0.3,0.3,0.1,1.3,0,1.6c-0.3,0.9-1.1,2.1-1.6,2.2C15,31.7,15,30.8,15.3,29.9L15.3,29.9z M17.3,26.4c0.1-0.3,0.5-1,1-1
	c0.2,0,0.2,0.1,0.1,0.5L18,27c0,0.1-0.1,0.2,0,0.2s0.1-0.1,0.2-0.1l0.5-1c0.2-0.3,0.3-0.3,0.4-0.2c0.3,0.4,0,1.2-0.1,1.4
	c-0.3,0.7-0.8,1.2-1.6,1.4C17,28,17,27.2,17.3,26.4L17.3,26.4z M19,27.7c0.1-0.2,0.4-0.8,0.7-0.9c0.1,0,0.2,0.1,0.1,0.4l-0.2,0.7
	c0,0.1,0,0.2,0,0.2s0.1-0.1,0.1-0.1l0.3-0.6c0.1-0.3,0.2-0.3,0.3-0.2c0.2,0.3,0.1,1,0,1.2c-0.2,0.6-0.6,1-1.2,1.2
	C18.9,28.9,18.8,28.3,19,27.7L19,27.7z M9.3,20.7c0.2-0.5,1.1-1.8,1.5-1.8c0.2,0,0.2,0.1,0,0.4l-1.2,2.3c0,0.1-0.1,0.1,0,0.2
	s0.1,0,0.1-0.1l1.6-2.4c0.2-0.3,0.3-0.3,0.4-0.2c0.2,0.3-0.6,1.8-0.8,2.2c-0.5,0.9-1.3,1.7-2.4,2C8.7,22.4,9,21.5,9.3,20.7L9.3,20.7
	z M7.2,29.3c0.3-1,0.5-2,0.6-3.1c0.1-0.6,0.4-2.3,0.8-2.4c0.2,0,0.3,0,0.2,0.4l-0.4,2.3c0,0.1,0,0.2,0.1,0.2l0,0
	c0.1,0,0.1,0,0.2-0.1l0.4-1.8c0.1-0.4,0.2-0.5,0.3-0.4c0.3,0.3,0.2,1.4,0.1,1.9C9,28.9,7.2,29.3,7.2,29.3z M7.2,35.8
	c0.3-1.1,0.3-2.3,0.1-3.4c0-0.6,0-2.4,0.4-2.6c0.2-0.1,0.3,0,0.3,0.4v2.2c0,0.1,0,0.2,0.1,0.2l0,0c0.1,0,0.1-0.1,0.1-0.2l0.2-2.8
	c0-0.5,0.1-0.6,0.3-0.6c0.5,0,0.5,1.4,0.5,2C9,34.8,7.2,35.8,7.2,35.8L7.2,35.8z M6.8,44.1c0.7-1.2,0.5-2.8,0.5-4.4
	c0-0.8,0.1-2.9,0.5-3.2C7.9,36.4,8,36.5,8,37v2.8C8,39.9,8,40,8.1,40l0,0c0.1,0,0.1-0.1,0.2-0.2l0.1-3.3c0-0.5,0.1-0.8,0.3-0.8
	c0.5,0,0.5,1.7,0.5,2.4C8.9,43.7,6.7,44.1,6.8,44.1L6.8,44.1z M8.1,43.6c0.8-1.2,1.2-2.7,1.2-4.1c0.1-0.7,0.1-2.8,0.5-2.9
	c0.2-0.1,0.3,0,0.3,0.5L10,39.9c0,0.1,0,0.2,0.1,0.2l0,0c0.1,0,0.1,0,0.2-0.2l0.3-2.7c0-0.5,0.2-0.6,0.3-0.6
	c0.5,0.1,0.4,1.7,0.3,2.3C10.5,43.5,8.1,43.6,8.1,43.6L8.1,43.6z M10.1,42.7c0.7-1,1.2-2.1,1.4-3.3c0.1-0.6,0.4-2.1,0.8-2.2
	c0.1,0,0.3,0,0.2,0.4L12,39.9c0,0.1,0,0.2,0,0.2l0,0c0.1,0,0.1,0,0.1-0.1l0.6-2.2c0.1-0.4,0.2-0.5,0.3-0.5c0.3,0.1,0.1,1.3,0,1.8
	C12.2,42.6,10.1,42.7,10.1,42.7L10.1,42.7z M14.5,39.2c-0.6,2.4-2.3,2.4-2.3,2.4c0.6-0.6,0.9-1.4,1.1-2.3c0.1-0.4,0.3-1.5,0.6-1.6
	c0.1,0,0.3,0,0.2,0.3l-0.5,1.8c0,0.1,0,0.1,0,0.1l0,0c0,0,0.1,0,0.1-0.1l0.5-1.7c0.1-0.3,0.2-0.4,0.3-0.3
	C14.8,38,14.6,38.9,14.5,39.2L14.5,39.2z M14.9,34.1c-0.1,1.1-0.6,2.2-1.3,3c-0.4-1-0.5-2.2-0.3-3.3c0.1-0.6,0.4-1.9,0.8-2.1
	c0.1-0.1,0.2,0,0.2,0.4l-0.3,2c0,0.1,0,0.2,0,0.2s0.1-0.1,0.1-0.2l0.4-2c0.1-0.4,0.2-0.4,0.3-0.3C15,32.2,14.9,33.7,14.9,34.1
	L14.9,34.1z M15.2,37.3c-0.3-0.9-0.3-1.9-0.1-2.8c0.1-0.5,0.4-1.4,0.7-1.6c0.1-0.1,0.2,0,0.1,0.3l-0.2,1.3c0,0.1,0,0.2,0,0.2
	s0.1-0.1,0.1-0.2l0.5-2c0.1-0.3,0.2-0.4,0.3-0.3c0.1,0.8,0,1.6-0.2,2.4C16.2,35.7,15.8,36.6,15.2,37.3L15.2,37.3z M17.9,35
	c-0.9,2.1-2,2.2-1.1-0.4c0.1-0.3,0.4-1,0.6-1.1s0.2,0,0.1,0.3L17.2,35c0,0,0,0.1,0,0.1l0,0c0,0,0.1-0.1,0.1-0.1l0.7-1.7
	c0.1-0.2,0.2-0.2,0.2-0.2S18,34.6,17.9,35L17.9,35z M18.7,31.3c-0.1,0.8-0.6,1.5-1.3,1.9c-0.4-0.7-0.5-1.5-0.3-2.3
	c0.1-0.4,0.5-1.5,0.8-1.6c0.1,0,0.2,0,0.2,0.3l-0.3,1.5c0,0.1,0,0.1,0,0.2s0.1-0.1,0.1-0.1l0.4-1.4c0.1-0.3,0.2-0.3,0.3-0.2
	C18.9,29.8,18.8,31,18.7,31.3z M19.3,33.4c-0.5-0.1-0.6-1.1-0.4-2c0.1-0.4,0.4-1.3,0.8-1.4c0.1,0,0.2,0,0.2,0.3l-0.3,1.5
	c0,0.1,0,0.1,0,0.2l0,0c0.1,0,0.1-0.1,0.1-0.1l0.4-1.4c0.1-0.3,0.2-0.3,0.3-0.2c0.3,0.2,0.2,1.2,0.1,1.5
	C20.3,32.7,19.8,33.5,19.3,33.4L19.3,33.4z M22.2,32.4c-0.2,0.8-0.6,1.8-1.1,1.7s-0.6-1.2-0.5-2c0.1-0.4,0.3-1.3,0.7-1.4
	c0.1,0,0.2,0,0.2,0.3l-0.2,1.4c0,0.1,0,0.1,0,0.1s0.1-0.1,0.1-0.1l0.3-1.3c0.1-0.3,0.2-0.3,0.3-0.2C22.3,31.1,22.3,32,22.2,32.4
	L22.2,32.4z M22.3,29c0-0.2,0.2-0.9,0.5-1c0.1,0,0.2,0,0.2,0.3v0.9c0,0.1,0,0.2,0,0.2s0.1-0.1,0.1-0.1l0.2-0.9
	c0-0.3,0.1-0.3,0.2-0.3c0.3,0.2,0.3,0.9,0.3,1.1c-0.1,0.6-0.4,1.2-0.9,1.5l0,0C22.5,30.3,22.3,29.6,22.3,29z M24,32.7
	c-0.1,0.8-0.4,1.7-0.9,1.7s-0.7-1-0.6-1.8c0-0.3,0.2-1.2,0.5-1.3c0.1,0,0.2,0,0.2,0.2l-0.1,1.4c0,0.1,0,0.1,0.1,0.1l0,0
	c0.1,0,0.1-0.1,0.1-0.1l0.2-1.3c0-0.2,0.1-0.3,0.3-0.2C24,31.5,24,32.3,24,32.7L24,32.7z M24.1,29.1c0.1-0.5,0.5-0.8,0.9-1
	c-0.4,1-0.3,2.2,0.3,3.1c-0.4-0.1-0.7-0.3-1-0.6C24,30.2,23.9,29.6,24.1,29.1L24.1,29.1z M25.3,34.6c-0.3,0-0.7-0.6-0.8-1.5
	s0.1-1.6,0.5-1.6s0.4,0.2,0.5,0.5c0,0.4,0,0.7,0,1.1c0,0.3,0.1,0.6,0.2,0.9C25.5,34.4,25.4,34.6,25.3,34.6L25.3,34.6z M25.1,29.3
	c0-0.3,0.2-1.1,0.5-1.3c0.2-0.1,0.3,0,0.3,0.4L26,29c0,0.1,0,0.2,0.1,0.2s0.1-0.1,0.1-0.2l0.1-0.7c0-0.4,0.2-0.4,0.3-0.3
	c0.4,0.2,0.5,1.1,0.5,1.4c0,0.8-0.4,1.5-1,2C25.4,30.8,25.1,30.1,25.1,29.3L25.1,29.3z M25.8,33.2c0-0.3-0.1-1.3,0.3-1.6
	c0.2-0.1,0.3-0.1,0.4,0.4l0.2,1c0,0.1,0,0.2,0.1,0.2l0,0c0.1,0,0.1-0.1,0.1-0.2v-0.7c0-0.4,0.1-0.5,0.3-0.5c0.5,0.2,0.6,1,0.6,1.3
	c0.1,0.8-0.2,1.7-0.8,2.3C26.3,34.9,25.8,34.1,25.8,33.2L25.8,33.2z M25.6,36.3c0-0.2,0.1-0.7,0.4-0.8c0.1,0,0.2,0,0.2,0.2v0.8
	c0,0,0,0.1,0,0.1s0.1,0,0.1-0.1l0.1-0.8c0-0.1,0.1-0.2,0.2-0.1c0.3,0.1,0.3,0.7,0.3,0.8c0,0.5-0.3,1-0.7,1S25.6,36.9,25.6,36.3z
	 M24.3,36.6c0-0.2,0.1-0.6,0.3-0.6s0.2,0,0.2,0.1v0.6v0.1c0,0,0,0,0-0.1l0.1-0.6c0-0.1,0.1-0.1,0.2-0.1s0.2,0.5,0.2,0.7
	c0,0.4-0.3,0.8-0.6,0.8S24.3,37,24.3,36.6L24.3,36.6z M23.3,37.8c0-0.2,0.1-0.6,0.3-0.7s0.2,0,0.2,0.1v0.6c0,0,0,0.1,0,0.1
	s0,0,0.1-0.1l0.1-0.6c0-0.1,0.1-0.1,0.2-0.1s0.3,0.6,0.2,0.7c0,0.4-0.3,0.9-0.6,0.8S23.3,38.3,23.3,37.8L23.3,37.8z M23.8,41.6
	c-0.4,0.2-0.4-0.2-0.3-0.4s0.6-0.2,1,0.2C24.3,41.5,24.1,41.5,23.8,41.6L23.8,41.6z M24.7,39.9c0,0.5-0.3,1.1-0.8,1
	s-0.7-0.7-0.6-1.1c0-0.2,0.2-0.8,0.4-0.8c0.1,0,0.2,0,0.2,0.2v0.8c0,0,0,0.1,0.1,0.1S24,40,24,40l0.1-0.8c0-0.2,0.1-0.2,0.2-0.1
	C24.7,39.2,24.7,39.8,24.7,39.9L24.7,39.9z M24.7,38.3c0-0.2,0.2-0.8,0.5-0.8c0.1,0,0.2,0,0.2,0.2v0.8c0,0,0,0.1,0.1,0.1
	s0.1,0,0.1-0.1l0.2-0.8c0-0.2,0.1-0.2,0.3-0.1c0.3,0.1,0.3,0.8,0.3,1c-0.1,0.5-0.4,1.1-0.9,1S24.6,38.9,24.7,38.3L24.7,38.3z
	 M25.9,40.8c-0.1,0.4-0.4,0.9-0.7,0.8s-0.4-0.6-0.3-1.1c0-0.2,0.2-0.6,0.4-0.7s0.2,0,0.1,0.2l-0.1,0.7c0,0,0,0.1,0,0.1l0,0
	c0,0,0,0,0.1-0.1l0.2-0.7c0-0.1,0.1-0.1,0.2-0.1S25.9,40.6,25.9,40.8L25.9,40.8z M26.7,40.7c-0.4,0-0.7-0.5-0.7-0.9
	c0-0.2,0.1-0.7,0.3-0.7c0.1,0,0.2,0,0.2,0.1l0.1,0.7c0,0,0,0.1,0.1,0.1s0,0,0.1-0.1l0.1-0.7c0-0.1,0.1-0.2,0.2-0.1
	c0.3,0.1,0.3,0.6,0.3,0.7C27.3,40.2,27.1,40.7,26.7,40.7L26.7,40.7z M27,38.8c-0.4,0-0.5-0.5-0.5-0.8c0-0.2,0.1-0.6,0.3-0.6
	s0.2,0,0.2,0.1v0.6v0.1c0,0,0,0,0.1-0.1l0.1-0.6c0-0.1,0.1-0.1,0.2-0.1s0.3,0.5,0.2,0.7C27.6,38.4,27.3,38.9,27,38.8L27,38.8z
	 M28.7,39.3c0,0.4-0.3,0.9-0.6,0.9s-0.5-0.6-0.5-1c0-0.2,0.1-0.6,0.3-0.7s0.2,0,0.2,0.1v0.8c0,0,0,0.1,0,0.1s0,0,0.1-0.1l0.1-0.7
	c0-0.1,0.1-0.1,0.2-0.1S28.7,39.2,28.7,39.3L28.7,39.3z M27.6,37.2c-0.2-0.3-0.5-1.1-0.3-1.5c0.1-0.2,0.2-0.2,0.4,0.2l0.7,1.1
	c0,0.1,0.1,0.2,0.2,0.1s0-0.1,0-0.2l-0.6-1.1c-0.2-0.4-0.1-0.5,0-0.5c0.4,0,1,0.8,1.1,1c0.4,0.7,0.5,1.6,0.3,2.4
	C28.7,38.4,28.1,37.9,27.6,37.2L27.6,37.2z M27.2,52.9c-0.2,0.8-1,1.3-1.7,1.1c-0.2,0-0.3-0.1-0.5-0.2c-0.7-0.4-1-1.2-0.7-1.9
	c1-2.6,4.1-9.8,4.4-10.7l0,0C28.8,41,29,41,29.1,41c0.1,0.1,0.2,0.2,0.1,0.3c-0.6,2.1-3,9-3.2,9.5c0,0.1-0.1,0.2-0.1,0.2
	c0,0.1,0,0.2,0.1,0.3c0.1,0,0.1-0.1,0.2-0.2c0-0.1,0.1-0.2,0.1-0.3c0.5-1.6,2.6-8,3-9.2c0.1-0.1,0.2-0.2,0.3-0.1
	c0.1,0,0.2,0.2,0.2,0.3C29.5,43.7,27.6,51.3,27.2,52.9L27.2,52.9z M30.7,54.5c-0.1,0.9-1,1.4-1.8,1.3c-0.9-0.1-1.4-1-1.3-1.8
	c0.5-2.7,2.4-10.9,2.6-11.8l0,0c0-0.2,0.2-0.3,0.3-0.2c0.2,0,0.3,0.2,0.2,0.3c-0.3,2.3-1.5,9.9-1.5,10.5c0,0.1,0,0.2,0,0.2
	c0,0.1,0.1,0.2,0.1,0.2c0.1-0.1,0.2-0.1,0.2-0.2c0-0.1,0.1-0.2,0-0.3c0.2-1.7,1.3-8.8,1.4-10.2c0-0.2,0.1-0.3,0.3-0.3
	c0.2,0,0.3,0.1,0.3,0.3C31.3,44.5,30.8,52.9,30.7,54.5L30.7,54.5z M32.6,56.7c-0.8,0.1-1.5-0.5-1.6-1.3c0-0.1,0-0.2,0-0.3
	c0,0,0,0,0-0.1s0-0.1,0-0.1s0,0,0-0.1c0.1-2.1,0.6-10,0.7-12.3c0-0.2,0.2-0.3,0.3-0.3l0,0c0.2,0,0.3,0.2,0.3,0.3c0,0,0,0,0,0
	c0,2.9,0,10.3,0,10.9c0,0.1,0,0.2,0,0.2c0,0.1,0.1,0.1,0.2,0.2c0.1-0.1,0.1-0.1,0.2-0.2c0-0.1,0-0.2,0-0.2c0-0.5,0-8,0-10.9
	c0-0.2,0.2-0.3,0.3-0.3l0,0c0.2,0,0.3,0.1,0.3,0.3C33.5,45,34,52.9,34.1,55c0,0,0,0.1,0,0.1s0,0.1,0,0.1s0,0,0,0.1
	c0.1,0.8-0.5,1.5-1.3,1.5C32.7,56.8,32.7,56.8,32.6,56.7L32.6,56.7z M36.6,55.7c-0.7,0.3-1.6,0-2-0.7c-0.1-0.2-0.1-0.3-0.1-0.5
	c-0.1-1.6-0.7-10-0.8-12c0-0.2,0.1-0.3,0.3-0.3c0.2,0,0.3,0.1,0.3,0.3c0.2,1.3,1.2,8.5,1.4,10.2c0,0.1,0,0.2,0.1,0.3
	c0,0.1,0.1,0.1,0.2,0.2c0.1-0.1,0.1-0.1,0.1-0.2c0-0.1,0-0.2,0-0.2c-0.1-0.5-1.3-8.2-1.6-10.5c0-0.2,0.1-0.3,0.2-0.3
	s0.3,0.1,0.3,0.2l0,0c0.2,1,2.1,9.1,2.6,11.8C37.8,54.7,37.4,55.5,36.6,55.7L36.6,55.7z M36.4,41.2L36.4,41.2
	c0.3,0.9,3.5,8.1,4.4,10.7c0.3,0.7,0,1.6-0.7,1.9c-0.7,0.4-1.6,0.3-2-0.4c-0.1-0.1-0.2-0.3-0.2-0.5c-0.4-1.6-2.2-9.3-2.7-11.1
	c0-0.1,0.1-0.3,0.2-0.3c0.1,0,0.2,0.1,0.3,0.2c0.4,1.2,2.5,7.6,3,9.2c0,0.1,0.1,0.2,0.1,0.3c0.1,0.1,0.1,0.1,0.2,0.2
	c0-0.1,0.1-0.2,0.1-0.3c0-0.1,0-0.2-0.1-0.2c-0.2-0.5-2.5-7.4-3.2-9.5c0-0.1,0-0.3,0.2-0.3C36.2,41,36.4,41.1,36.4,41.2L36.4,41.2z
	 M35.6,38.7c-0.2-0.8-0.1-1.6,0.3-2.4c0.2-0.3,0.7-1,1.1-1c0.2,0,0.2,0.1,0,0.5l-0.6,1.1c0,0.1-0.1,0.2,0,0.2s0.1-0.1,0.2-0.1
	l0.7-1.1c0.2-0.3,0.3-0.3,0.4-0.2c0.2,0.4-0.2,1.2-0.3,1.5C37.1,37.9,36.4,38.4,35.6,38.7L35.6,38.7z M37.1,40.2
	c-0.4,0-0.6-0.4-0.6-0.9c0-0.2,0-0.7,0.2-0.7s0.2,0,0.2,0.1l0.1,0.7c0,0,0,0.1,0.1,0.1s0,0,0-0.1v-0.7c0-0.1,0.1-0.2,0.2-0.1
	s0.3,0.5,0.3,0.7C37.6,39.6,37.4,40.2,37.1,40.2L37.1,40.2z M37.5,38.1c0-0.1,0-0.6,0.3-0.7s0.2,0,0.2,0.1l0.1,0.6
	c0,0,0,0.1,0.1,0.1s0,0,0-0.1v-0.6c0-0.1,0.1-0.1,0.2-0.1s0.3,0.4,0.3,0.6c0,0.4-0.2,0.8-0.5,0.8S37.6,38.4,37.5,38.1L37.5,38.1z
	 M38.4,40.7c-0.4,0-0.7-0.5-0.7-0.9c0-0.2,0.1-0.7,0.3-0.7c0.1,0,0.2,0,0.2,0.1l0.1,0.7c0,0,0,0.1,0.1,0.1s0.1,0,0.1-0.1l0.1-0.7
	c0-0.1,0.1-0.2,0.2-0.1c0.3,0.1,0.3,0.5,0.3,0.7C39.1,40.2,38.9,40.7,38.4,40.7L38.4,40.7z M40,41.6c-0.3,0.1-0.6-0.4-0.7-0.8
	c0-0.2-0.1-0.7,0.1-0.8s0.1,0,0.2,0.1l0.2,0.7c0,0,0,0.1,0.1,0.1l0,0c0,0,0,0,0-0.1L39.7,40c0-0.1,0-0.2,0.1-0.2s0.4,0.5,0.4,0.7
	C40.5,40.9,40.3,41.5,40,41.6L40,41.6z M41.3,41.6c-0.2-0.1-0.4-0.1-0.7-0.1c0.4-0.4,0.9-0.4,1-0.2S41.7,41.8,41.3,41.6L41.3,41.6z
	 M41.3,41c-0.4,0-0.7-0.5-0.8-1c0-0.2,0-0.8,0.3-0.9c0.1,0,0.2,0,0.2,0.1l0.1,0.8c0,0,0,0.1,0.1,0.1s0.1-0.1,0.1-0.1v-0.8
	c0-0.2,0.1-0.2,0.2-0.2c0.3,0.1,0.4,0.6,0.4,0.8C41.9,40.3,41.7,41,41.3,41L41.3,41z M41.2,37.3l0.1,0.6c0,0,0,0.1,0.1,0.1
	s0,0,0-0.1v-0.6c0-0.1,0.1-0.2,0.2-0.1s0.3,0.5,0.3,0.7c0,0.4-0.2,0.9-0.5,0.9s-0.6-0.4-0.6-0.8c0-0.2,0-0.6,0.2-0.7
	S41.1,37.2,41.2,37.3z M40.1,36c0.1,0,0.2,0,0.2,0.1l0.1,0.6c0,0,0,0.1,0.1,0.1s0,0,0-0.1v-0.6c0-0.1,0.1-0.1,0.2-0.1
	s0.3,0.4,0.3,0.6c0,0.4-0.1,0.8-0.5,0.8s-0.6-0.4-0.6-0.8C39.8,36.5,39.8,36.1,40.1,36z M39.8,38.6C39.9,38.6,39.9,38.6,39.8,38.6
	l0.1-0.9c0-0.2,0.1-0.2,0.2-0.2c0.3,0,0.5,0.6,0.5,0.8c0.1,0.5-0.1,1.2-0.6,1.3s-0.8-0.5-0.9-1c0-0.2,0-0.8,0.3-1
	c0.1-0.1,0.2,0,0.2,0.1L39.8,38.6C39.8,38.5,39.8,38.6,39.8,38.6L39.8,38.6z M38.9,36.5C38.9,36.5,38.9,36.6,38.9,36.5L38.9,36.5
	c0.1,0.1,0.1,0.1,0.1,0v-0.8c0-0.2,0.1-0.2,0.2-0.2c0.3,0.1,0.4,0.6,0.4,0.8c0,0.5-0.2,1.1-0.6,1.1s-0.7-0.5-0.7-1
	c0-0.2,0-0.8,0.3-0.8c0.1,0,0.2,0,0.2,0.1L38.9,36.5z M39.5,33.2c-0.1,0.9-0.6,1.7-1.4,2.2c-0.6-0.6-0.9-1.4-0.8-2.3
	c0-0.3,0.1-1.2,0.6-1.3c0.2-0.1,0.3,0,0.3,0.5v0.7c0,0.1,0,0.2,0.1,0.2s0.1-0.1,0.1-0.2l0.2-1c0.1-0.4,0.2-0.5,0.4-0.4
	C39.5,31.9,39.5,32.9,39.5,33.2L39.5,33.2z M39.2,31.3c-0.6-0.5-1-1.2-1.1-2c0-0.3,0.1-1.1,0.5-1.4c0.2-0.1,0.3,0,0.3,0.3L39,29
	c0,0.1,0,0.2,0.1,0.2s0.1-0.1,0.1-0.2l0.1-0.7c0-0.4,0.1-0.5,0.3-0.4c0.4,0.2,0.5,1.1,0.6,1.3C40.1,30.1,39.8,30.8,39.2,31.3z
	 M40.7,33.2c-0.1,0.8-0.4,1.5-0.8,1.5c-0.2,0-0.3-0.2-0.4-0.5c0.1-0.3,0.2-0.6,0.2-0.9c0-0.4,0-0.7,0-1.1c0.1-0.3,0.3-0.5,0.5-0.5
	S40.8,32.3,40.7,33.2z M40.8,30.6c-0.3,0.3-0.6,0.5-1,0.6c0.6-0.9,0.8-2.1,0.3-3.1c0.5,0.1,0.8,0.5,0.9,1
	C41.2,29.6,41.1,30.2,40.8,30.6L40.8,30.6z M42.1,34.3c-0.5,0-0.8-0.9-0.9-1.7c0-0.3,0-1.1,0.3-1.3c0.1-0.1,0.2,0,0.3,0.2l0.2,1.3
	c0,0.1,0,0.1,0.1,0.1l0,0c0.1,0,0.1-0.1,0.1-0.1L42,31.4c0-0.3,0.1-0.3,0.2-0.3c0.3,0.1,0.5,1,0.5,1.3
	C42.8,33.3,42.6,34.3,42.1,34.3z M42.3,30.8L42.3,30.8c-0.5-0.4-0.8-0.9-0.9-1.5c0-0.2,0-0.9,0.3-1.1c0.1-0.1,0.2,0,0.2,0.3l0.2,0.9
	c0,0.1,0,0.2,0.1,0.1s0-0.1,0-0.2v-0.9c0-0.3,0.1-0.4,0.2-0.3c0.3,0.1,0.5,0.8,0.5,1C42.9,29.6,42.7,30.3,42.3,30.8z M44.1,34
	c-0.5,0.1-0.9-0.8-1.1-1.7c-0.1-0.3-0.1-1.3,0.1-1.5c0.1-0.1,0.2,0,0.3,0.2l0.3,1.3c0,0.1,0,0.1,0.1,0.1s0-0.1,0-0.1L43.6,31
	c0-0.3,0.1-0.3,0.2-0.3c0.3,0.1,0.6,1,0.7,1.4C44.7,32.9,44.6,33.9,44.1,34L44.1,34z M45.9,33.4c-0.5,0.1-1-0.7-1.2-1.6
	c-0.1-0.3-0.2-1.3,0.1-1.5c0.1-0.1,0.2-0.1,0.3,0.2l0.4,1.4c0,0.1,0,0.1,0.1,0.1l0,0c0.1,0,0-0.1,0-0.2l-0.3-1.5
	c0-0.3,0-0.3,0.2-0.3c0.4,0.1,0.7,1,0.8,1.4C46.5,32.3,46.3,33.3,45.9,33.4L45.9,33.4z M46.5,31.3c-0.1-0.4-0.3-1.5,0-1.7
	c0.1-0.1,0.2-0.1,0.3,0.2l0.4,1.4c0,0.1,0,0.1,0.1,0.1s0-0.1,0-0.2L47,29.7c0-0.3,0-0.4,0.2-0.3c0.4,0.1,0.7,1.2,0.8,1.6
	c0.2,0.8,0.1,1.6-0.3,2.3C47.1,32.8,46.6,32.1,46.5,31.3z M47.3,35c-0.2-0.4-0.6-1.7-0.4-1.9s0.2-0.1,0.2,0.2l0.7,1.7
	c0,0,0,0.1,0.1,0.1s0-0.1,0-0.1l-0.3-1.1c-0.1-0.2,0-0.3,0.1-0.3s0.5,0.8,0.6,1.1C49.3,37.2,48.3,37.1,47.3,35z M50,37.3
	c-0.7-0.7-1.1-1.6-1.2-2.5c-0.2-0.8-0.3-1.6-0.2-2.4c0.1-0.1,0.2-0.1,0.3,0.3l0.5,2c0,0.1,0,0.2,0.1,0.2s0-0.1,0-0.2l-0.1-1.3
	c-0.1-0.3,0-0.4,0.1-0.3c0.3,0.1,0.6,1.1,0.7,1.6C50.4,35.4,50.3,36.4,50,37.3z M50.4,31.9c0.1-0.1,0.2-0.1,0.3,0.3l0.4,2
	c0,0.1,0,0.2,0.1,0.2l0,0c0.1,0,0-0.1,0-0.2l-0.3-2c0-0.4,0-0.5,0.2-0.4c0.4,0.2,0.7,1.6,0.8,2.1c0.2,1.1,0.1,2.2-0.3,3.3
	c-0.7-0.8-1.2-1.9-1.3-3C50.3,33.7,50.2,32.2,50.4,31.9L50.4,31.9z M50.7,39.2c-0.1-0.3-0.3-1.3-0.1-1.3c0.1,0,0.2,0.1,0.3,0.3
	l0.5,1.7c0,0.1,0.1,0.1,0.1,0.1l0,0c0,0,0-0.1,0-0.1l-0.5-1.8c-0.1-0.3,0.1-0.4,0.2-0.3c0.3,0.1,0.5,1.2,0.6,1.6
	c0.1,0.8,0.5,1.6,1.1,2.3C53,41.6,51.3,41.6,50.7,39.2L50.7,39.2z M52.1,39.1c-0.1-0.5-0.4-1.7-0.1-1.8c0.1,0,0.2,0.1,0.3,0.5L53,40
	c0,0.1,0.1,0.2,0.1,0.1l0,0c0.1,0,0.1-0.1,0-0.2l-0.5-2.3c-0.1-0.4,0.1-0.5,0.2-0.4c0.3,0.1,0.7,1.7,0.8,2.2
	c0.2,1.2,0.7,2.4,1.4,3.3C55.1,42.7,53,42.6,52.1,39.1z M53.9,39c-0.1-0.6-0.1-2.2,0.3-2.3c0.2,0,0.3,0,0.3,0.6l0.3,2.7
	c0,0.1,0.1,0.2,0.2,0.2l0,0c0.1,0,0.1-0.1,0.1-0.2L55,37.1c0-0.5,0.2-0.6,0.3-0.5c0.4,0.2,0.4,2.2,0.5,2.9c0.1,1.5,0.5,2.9,1.3,4.1
	C57.1,43.6,54.7,43.5,53.9,39L53.9,39z M56,38.1c0-0.7,0-2.3,0.5-2.4c0.2,0,0.3,0.2,0.3,0.8l0.1,3.3C57,40,57,40,57.1,40l0,0
	c0.1,0,0.1-0.1,0.1-0.2V37c0-0.5,0.1-0.6,0.3-0.5c0.4,0.3,0.5,2.4,0.5,3.2c-0.1,1.6-0.2,3.3,0.5,4.4C58.5,44.1,56.2,43.7,56,38.1
	L56,38.1z"/>
</svg>
